<?xml version="1.0" encoding="UTF-8" standalone="no"?>
<!-- Created with Inkscape (http://www.inkscape.org/) -->

<svg
   version="1.1"
   id="svg9"
   width="666.3493"
   height="666.58264"
   viewBox="0 0 666.34931 666.58264"
   sodipodi:docname="2164578.svg"
   inkscape:export-filename="2164578.jpg"
   inkscape:export-xdpi="96"
   inkscape:export-ydpi="96"
   inkscape:version="1.2.2 (732a01da63, 2022-12-09)"
   xmlns:inkscape="http://www.inkscape.org/namespaces/inkscape"
   xmlns:sodipodi="http://sodipodi.sourceforge.net/DTD/sodipodi-0.dtd"
   xmlns="http://www.w3.org/2000/svg"
   xmlns:svg="http://www.w3.org/2000/svg">
  <defs
     id="defs13">
    <clipPath
       clipPathUnits="userSpaceOnUse"
       id="clipPath27">
      <path
         d="M 0,500 H 500 V 0 H 0 Z"
         id="path25" />
    </clipPath>
    <clipPath
       clipPathUnits="userSpaceOnUse"
       id="clipPath35">
      <path
         d="M 35.8143,479.956 H 464.662 V 51.108 H 35.8143 Z"
         id="path33" />
    </clipPath>
    <clipPath
       clipPathUnits="userSpaceOnUse"
       id="clipPath89">
      <path
         d="m 135.687,327.906 h 143.63 v -203.74 h -143.63 z"
         id="path87" />
    </clipPath>
    <clipPath
       clipPathUnits="userSpaceOnUse"
       id="clipPath93">
      <path
         d="m 135.687,327.906 h 143.63 v -17.57 h -143.63 z"
         id="path91" />
    </clipPath>
    <clipPath
       clipPathUnits="userSpaceOnUse"
       id="clipPath97">
      <path
         d="m 135.687,301.31 h 143.63 v -17.569 h -143.63 z"
         id="path95" />
    </clipPath>
    <clipPath
       clipPathUnits="userSpaceOnUse"
       id="clipPath101">
      <path
         d="m 135.687,274.714 h 143.63 v -17.569 h -143.63 z"
         id="path99" />
    </clipPath>
    <clipPath
       clipPathUnits="userSpaceOnUse"
       id="clipPath105">
      <path
         d="m 135.687,248.118 h 143.63 v -17.569 h -143.63 z"
         id="path103" />
    </clipPath>
    <clipPath
       clipPathUnits="userSpaceOnUse"
       id="clipPath109">
      <path
         d="m 135.687,221.522 h 143.63 v -17.569 h -143.63 z"
         id="path107" />
    </clipPath>
    <clipPath
       clipPathUnits="userSpaceOnUse"
       id="clipPath113">
      <path
         d="m 135.687,194.927 h 143.63 v -17.57 h -143.63 z"
         id="path111" />
    </clipPath>
    <clipPath
       clipPathUnits="userSpaceOnUse"
       id="clipPath117">
      <path
         d="m 135.687,168.331 h 143.63 v -17.569 h -143.63 z"
         id="path115" />
    </clipPath>
    <clipPath
       clipPathUnits="userSpaceOnUse"
       id="clipPath121">
      <path
         d="m 135.687,141.735 h 143.63 v -17.569 h -143.63 z"
         id="path119" />
    </clipPath>
    <clipPath
       clipPathUnits="userSpaceOnUse"
       id="clipPath229">
      <path
         d="m 112.47,328.625 h 14.845 V 309.617 H 112.47 Z"
         id="path227" />
    </clipPath>
    <clipPath
       clipPathUnits="userSpaceOnUse"
       id="clipPath245">
      <path
         d="m 112.47,302.03 h 14.845 V 283.021 H 112.47 Z"
         id="path243" />
    </clipPath>
    <clipPath
       clipPathUnits="userSpaceOnUse"
       id="clipPath261">
      <path
         d="m 112.47,275.434 h 14.845 V 256.425 H 112.47 Z"
         id="path259" />
    </clipPath>
    <clipPath
       clipPathUnits="userSpaceOnUse"
       id="clipPath277">
      <path
         d="m 112.47,248.838 h 14.845 V 229.829 H 112.47 Z"
         id="path275" />
    </clipPath>
    <clipPath
       clipPathUnits="userSpaceOnUse"
       id="clipPath293">
      <path
         d="m 112.47,222.242 h 14.845 V 203.233 H 112.47 Z"
         id="path291" />
    </clipPath>
    <clipPath
       clipPathUnits="userSpaceOnUse"
       id="clipPath309">
      <path
         d="m 112.47,195.646 h 14.845 V 176.638 H 112.47 Z"
         id="path307" />
    </clipPath>
    <clipPath
       clipPathUnits="userSpaceOnUse"
       id="clipPath325">
      <path
         d="m 112.47,169.051 h 14.845 V 150.042 H 112.47 Z"
         id="path323" />
    </clipPath>
    <clipPath
       clipPathUnits="userSpaceOnUse"
       id="clipPath341">
      <path
         d="m 112.47,142.455 h 14.845 V 123.446 H 112.47 Z"
         id="path339" />
    </clipPath>
    <clipPath
       clipPathUnits="userSpaceOnUse"
       id="clipPath431">
      <path
         d="m 371.354,327.112 h 13.391 v -100.07 h -13.391 z"
         id="path429" />
    </clipPath>
    <clipPath
       clipPathUnits="userSpaceOnUse"
       id="clipPath483">
      <path
         d="m 369.039,382.896 h 5.072 v -15.979 h -5.072 z"
         id="path481" />
    </clipPath>
    <clipPath
       clipPathUnits="userSpaceOnUse"
       id="clipPath639">
      <path
         d="M 0,500 H 500 V 0 H 0 Z"
         id="path637" />
    </clipPath>
  </defs>
  <sodipodi:namedview
     id="namedview11"
     pagecolor="#ffffff"
     bordercolor="#000000"
     borderopacity="0.25"
     inkscape:showpageshadow="2"
     inkscape:pageopacity="0.0"
     inkscape:pagecheckerboard="0"
     inkscape:deskcolor="#d1d1d1"
     showgrid="false"
     inkscape:zoom="0.79349998"
     inkscape:cx="255.82861"
     inkscape:cy="434.1525"
     inkscape:window-width="1366"
     inkscape:window-height="706"
     inkscape:window-x="-8"
     inkscape:window-y="-8"
     inkscape:window-maximized="1"
     inkscape:current-layer="g17">
    <inkscape:page
       x="0"
       y="0"
       id="page15"
       width="666.3493"
       height="666.58264" />
  </sodipodi:namedview>
  <g
     id="g17"
     inkscape:groupmode="layer"
     inkscape:label="Page 1"
     transform="matrix(1.3333333,0,0,-1.3333333,-0.31733333,666.58265)">
    <path
       d="M 0.238,0 H 500 V 499.937 H 0.238 Z"
       style="fill:#ffffff;fill-opacity:1;fill-rule:nonzero;stroke:none"
       id="path19" />
    <g
       id="g21">
      <g
         id="g23"
         clip-path="url(#clipPath27)">
        <g
           id="g29">
          <g
             id="g31" />
          <g
             id="g43">
            <g
               clip-path="url(#clipPath35)"
               opacity="0.509995"
               id="g41">
              <g
                 transform="translate(464.6621,265.5322)"
                 id="g39">
                <path
                   d="m 0,0 c 0,118.423 -96.001,214.424 -214.424,214.424 -118.423,0 -214.424,-96.001 -214.424,-214.424 0,-118.423 96.001,-214.424 214.424,-214.424 C -96.001,-214.424 0,-118.423 0,0"
                   style="fill:#d1f2e1;fill-opacity:1;fill-rule:nonzero;stroke:none"
                   id="path37" />
              </g>
            </g>
          </g>
        </g>
        <g
           id="g45"
           transform="translate(121.041,101.1143)">
          <path
             d="m 0,0 c -6.295,1.93 -12.512,4.253 -18.597,6.896 3.453,1.544 6.138,5.028 7.538,8.353 2.756,6.544 1.517,13.894 0.375,20.653 -0.074,0.438 -0.627,0.631 -0.987,0.433 -10.086,-5.549 -10.676,-17.481 -10.772,-27.734 -3.846,1.778 -7.622,3.701 -11.324,5.739 4.51,1.31 7.604,6.173 8.739,10.459 1.784,6.739 -0.279,13.741 -2.204,20.203 -0.111,0.372 -0.612,0.703 -0.987,0.432 -9.767,-7.068 -8.451,-19.606 -7.229,-30.143 -2.595,1.467 -5.163,2.975 -7.668,4.563 -1.736,1.101 -3.45,2.236 -5.145,3.399 4.225,1.597 7.042,6.33 8.033,10.498 1.615,6.787 -0.616,13.724 -2.706,20.14 -0.169,0.519 -0.712,0.647 -1.129,0.329 -9.238,-7.049 -7.893,-19.155 -6.459,-29.363 -2.896,2.059 -5.728,4.205 -8.489,6.442 2.753,2.393 4.416,6.246 4.952,9.659 1.088,6.92 -1.73,13.684 -4.329,19.942 -0.175,0.423 -0.769,0.432 -1.066,0.166 -7.327,-6.563 -6.848,-16.109 -5.175,-24.997 -0.214,0.19 -0.431,0.377 -0.643,0.568 0.083,0.15 0.043,0.344 -0.096,0.447 0.114,0.15 0.161,0.348 0.078,0.585 -3.469,9.939 -7.688,22.031 -19.543,24.141 -0.523,0.092 -0.929,-0.289 -0.842,-0.821 1.034,-6.382 2.152,-13.202 6.249,-18.437 2.762,-3.531 7.456,-6.707 12.145,-6.377 1.048,-0.949 2.12,-1.869 3.191,-2.792 0.094,-0.444 0.19,-0.885 0.285,-1.323 -9.398,2.854 -20.072,5.17 -27.979,-2.257 -0.306,-0.288 -0.276,-0.871 0.119,-1.076 5.974,-3.109 12.477,-6.5 19.425,-6.021 4.684,0.324 10.321,2.619 12.264,7.244 2.99,-2.417 6.059,-4.732 9.203,-6.943 -10.205,0.331 -21.994,0.175 -27.937,-9.591 -0.219,-0.358 -0.036,-0.913 0.4,-1.006 6.811,-1.45 14.254,-3.021 20.982,-0.375 3.939,1.55 8.12,4.862 9.096,9.204 1.409,-0.953 2.826,-1.893 4.263,-2.802 2.024,-1.282 4.074,-2.498 6.14,-3.679 -10.058,-1.61 -21.441,-4.017 -25.41,-14.694 -0.157,-0.419 0.239,-0.854 0.647,-0.863 6.527,-0.133 13.613,-0.284 19.525,2.934 3.918,2.133 7.891,6.245 8.274,10.931 3.879,-2.11 7.823,-4.067 11.847,-5.841 -9.844,-2.826 -21.151,-6.538 -23.827,-17.725 -0.092,-0.384 0.188,-0.91 0.647,-0.863 6.547,0.67 13.585,1.369 19.105,5.305 3.706,2.643 7.182,7.321 6.861,12.113 C -13.698,3.35 -7.063,1.039 -0.233,-0.835 0.305,-0.982 0.534,-0.163 0,0"
             style="fill:#79aa99;fill-opacity:1;fill-rule:nonzero;stroke:none"
             id="path47" />
        </g>
        <g
           id="g49"
           transform="translate(103.7344,161.4687)">
          <path
             d="m 0,0 c -4.371,2.304 -8.629,4.888 -12.746,7.687 2.763,0.656 5.23,2.849 6.727,5.104 2.949,4.438 3.064,10.032 3.169,15.176 0.007,0.333 -0.374,0.553 -0.668,0.457 -8.213,-2.679 -10.319,-11.395 -11.825,-18.941 -2.586,1.849 -5.101,3.796 -7.545,5.818 3.508,0.334 6.47,3.486 7.907,6.487 2.259,4.719 1.718,10.171 1.204,15.204 -0.03,0.29 -0.353,0.605 -0.667,0.457 -8.191,-3.844 -8.977,-13.272 -9.551,-21.212 -1.708,1.445 -3.39,2.916 -5.015,4.438 -1.125,1.054 -2.23,2.132 -3.317,3.225 3.339,0.587 6.078,3.683 7.393,6.617 2.141,4.778 1.467,10.205 0.825,15.228 -0.053,0.406 -0.435,0.576 -0.787,0.401 -7.798,-3.904 -8.501,-13.018 -8.874,-20.745 -1.847,1.923 -3.635,3.902 -5.356,5.938 2.364,1.379 4.13,3.986 5.003,6.428 1.771,4.95 0.641,10.332 -0.399,15.309 -0.071,0.337 -0.507,0.427 -0.763,0.273 -6.321,-3.814 -7.305,-10.919 -7.316,-17.706 -0.131,0.17 -0.264,0.337 -0.395,0.508 0.083,0.099 0.08,0.248 -0.007,0.343 0.104,0.095 0.167,0.235 0.139,0.42 -1.166,7.815 -2.584,17.321 -11.029,20.536 -0.373,0.142 -0.725,-0.082 -0.736,-0.487 -0.131,-4.85 -0.262,-10.035 2.026,-14.469 1.542,-2.99 4.559,-5.989 8.062,-6.402 0.639,-0.847 1.301,-1.676 1.962,-2.506 0.007,-0.34 0.016,-0.679 0.025,-1.015 -6.53,3.42 -14.076,6.622 -20.946,2.253 -0.266,-0.169 -0.325,-0.603 -0.063,-0.809 3.97,-3.129 8.289,-6.539 13.48,-7.16 3.499,-0.417 7.976,0.486 10.056,3.624 1.866,-2.2 3.804,-4.337 5.814,-6.408 -7.478,1.674 -16.192,3.209 -21.942,-3.159 -0.211,-0.234 -0.154,-0.668 0.155,-0.798 4.818,-2.023 10.086,-4.223 15.417,-3.214 3.122,0.591 6.668,2.448 7.996,5.512 0.905,-0.899 1.818,-1.791 2.75,-2.663 1.313,-1.228 2.655,-2.411 4.012,-3.572 -7.641,0.221 -16.371,0.041 -20.792,-7.276 -0.175,-0.288 0.056,-0.664 0.356,-0.726 4.794,-1.012 9.997,-2.116 14.806,-0.571 3.188,1.024 6.693,3.5 7.632,6.901 2.564,-2.099 5.198,-4.094 7.917,-5.966 -7.654,-0.705 -16.511,-1.858 -20.05,-9.732 -0.122,-0.271 0.012,-0.698 0.356,-0.727 4.921,-0.423 10.208,-0.893 14.829,1.236 3.103,1.43 6.32,4.392 6.755,7.97 C -9.63,4.387 -5.062,1.754 -0.289,-0.584 0.087,-0.768 0.371,-0.196 0,0"
             style="fill:#79aa99;fill-opacity:1;fill-rule:nonzero;stroke:none"
             id="path51" />
        </g>
        <g
           id="g53"
           transform="translate(91.647,216.7695)">
          <path
             d="m 0,0 c -3.518,2.022 -6.934,4.271 -10.227,6.695 2.287,0.454 4.378,2.178 5.675,3.984 2.554,3.553 2.818,8.139 3.06,12.357 0.015,0.274 -0.29,0.465 -0.534,0.396 -6.821,-1.951 -8.813,-9.038 -10.278,-15.186 -2.066,1.597 -4.071,3.27 -6.015,5.003 2.889,0.168 5.415,2.665 6.685,5.084 1.997,3.805 1.718,8.294 1.448,12.44 -0.016,0.24 -0.271,0.507 -0.534,0.396 -6.837,-2.906 -7.768,-10.62 -8.479,-17.118 -1.358,1.237 -2.694,2.496 -3.981,3.794 -0.892,0.899 -1.765,1.816 -2.624,2.747 2.757,0.38 5.099,2.838 6.266,5.206 1.902,3.855 1.514,8.329 1.138,12.471 -0.03,0.335 -0.339,0.486 -0.633,0.352 -6.517,-2.967 -7.37,-10.425 -7.909,-16.754 -1.458,1.634 -2.866,3.312 -4.217,5.034 1.982,1.061 3.51,3.147 4.301,5.124 1.603,4.009 0.838,8.459 0.135,12.576 -0.047,0.278 -0.402,0.364 -0.617,0.246 -5.303,-2.938 -6.325,-8.739 -6.54,-14.309 -0.102,0.144 -0.207,0.286 -0.308,0.43 0.07,0.079 0.073,0.201 0.003,0.281 0.089,0.075 0.145,0.188 0.128,0.341 -0.721,6.449 -1.596,14.292 -8.429,17.186 -0.302,0.128 -0.597,-0.046 -0.619,-0.378 -0.254,-3.976 -0.518,-8.227 1.225,-11.935 1.175,-2.5 3.559,-5.052 6.422,-5.497 0.499,-0.714 1.017,-1.414 1.534,-2.115 -0.005,-0.28 -0.008,-0.558 -0.011,-0.834 -5.254,3.004 -11.35,5.86 -17.119,2.483 -0.224,-0.131 -0.285,-0.485 -0.076,-0.663 3.162,-2.688 6.604,-5.617 10.844,-6.282 2.859,-0.449 6.56,0.157 8.362,2.669 1.465,-1.863 2.991,-3.675 4.577,-5.435 -6.086,1.6 -13.19,3.124 -18.101,-1.928 -0.18,-0.186 -0.147,-0.544 0.102,-0.66 3.893,-1.805 8.15,-3.771 12.555,-3.103 2.579,0.389 5.546,1.806 6.728,4.281 0.715,-0.767 1.438,-1.525 2.176,-2.27 1.04,-1.047 2.106,-2.058 3.184,-3.052 -6.263,0.414 -13.433,0.529 -17.282,-5.341 -0.152,-0.231 0.026,-0.546 0.27,-0.608 3.903,-0.974 8.14,-2.038 12.133,-0.916 2.647,0.744 5.599,2.669 6.472,5.432 2.04,-1.8 4.142,-3.517 6.316,-5.136 -6.302,-0.345 -13.605,-1.024 -16.748,-7.379 -0.108,-0.217 -0.012,-0.572 0.271,-0.607 4.024,-0.495 8.349,-1.041 12.206,0.566 2.589,1.079 5.319,3.412 5.784,6.335 C -7.77,3.892 -4.101,1.593 -0.254,-0.47 0.048,-0.633 0.298,-0.172 0,0"
             style="fill:#79aa99;fill-opacity:1;fill-rule:nonzero;stroke:none"
             id="path55" />
        </g>
        <g
           id="g57"
           transform="translate(265.9922,101.1143)">
          <path
             d="m 0,0 c 6.295,1.93 12.512,4.253 18.597,6.896 -3.453,1.544 -6.138,5.028 -7.538,8.353 -2.756,6.544 -1.517,13.894 -0.375,20.653 0.074,0.438 0.627,0.631 0.987,0.433 10.086,-5.549 10.676,-17.481 10.771,-27.734 3.846,1.778 7.622,3.701 11.325,5.739 -4.51,1.31 -7.604,6.173 -8.739,10.459 -1.785,6.739 0.279,13.741 2.204,20.203 0.111,0.372 0.612,0.703 0.987,0.432 9.766,-7.068 8.451,-19.606 7.228,-30.143 2.596,1.467 5.163,2.975 7.669,4.563 1.736,1.101 3.449,2.236 5.144,3.399 -4.225,1.597 -7.041,6.33 -8.032,10.498 -1.615,6.787 0.616,13.724 2.706,20.14 0.169,0.519 0.712,0.647 1.129,0.329 9.238,-7.049 7.892,-19.155 6.458,-29.363 2.897,2.059 5.729,4.205 8.489,6.442 -2.752,2.393 -4.415,6.246 -4.951,9.659 -1.088,6.92 1.729,13.684 4.329,19.942 0.175,0.423 0.769,0.432 1.065,0.166 7.328,-6.563 6.849,-16.109 5.176,-24.997 0.214,0.19 0.431,0.377 0.643,0.568 -0.084,0.15 -0.043,0.344 0.095,0.447 -0.113,0.15 -0.161,0.348 -0.078,0.585 3.47,9.939 7.689,22.031 19.543,24.141 0.523,0.092 0.929,-0.289 0.843,-0.821 C 84.641,54.607 83.522,47.787 79.426,42.552 76.664,39.021 71.969,35.845 67.28,36.175 66.233,35.226 65.16,34.306 64.089,33.383 63.995,32.939 63.9,32.498 63.805,32.06 c 9.397,2.854 20.072,5.17 27.978,-2.257 0.307,-0.288 0.277,-0.871 -0.118,-1.076 -5.975,-3.109 -12.477,-6.5 -19.426,-6.021 -4.683,0.324 -10.321,2.619 -12.263,7.244 -2.99,-2.417 -6.059,-4.732 -9.204,-6.943 10.206,0.331 21.995,0.175 27.938,-9.591 0.218,-0.358 0.035,-0.913 -0.4,-1.006 -6.812,-1.45 -14.254,-3.021 -20.983,-0.375 -3.938,1.55 -8.12,4.862 -9.096,9.204 -1.409,-0.953 -2.826,-1.893 -4.262,-2.802 -2.024,-1.282 -4.075,-2.498 -6.14,-3.679 C 47.887,13.148 59.27,10.741 63.238,0.064 63.395,-0.355 63,-0.79 62.592,-0.799 56.064,-0.932 48.979,-1.083 43.066,2.135 39.149,4.268 35.176,8.38 34.793,13.066 30.914,10.956 26.97,8.999 22.945,7.225 32.789,4.399 44.097,0.687 46.772,-10.5 c 0.092,-0.384 -0.187,-0.91 -0.646,-0.863 -6.547,0.67 -13.586,1.369 -19.105,5.305 C 23.314,-3.415 19.839,1.263 20.16,6.055 13.697,3.35 7.062,1.039 0.232,-0.835 -0.306,-0.982 -0.534,-0.163 0,0"
             style="fill:#79aa99;fill-opacity:1;fill-rule:nonzero;stroke:none"
             id="path59" />
        </g>
        <g
           id="g61"
           transform="translate(283.2979,161.4687)">
          <path
             d="M 0,0 C 4.372,2.304 8.63,4.888 12.746,7.687 9.984,8.343 7.517,10.536 6.019,12.791 3.07,17.229 2.956,22.823 2.851,27.967 2.844,28.3 3.225,28.52 3.518,28.424 11.731,25.745 13.837,17.029 15.344,9.483 c 2.586,1.849 5.101,3.796 7.545,5.818 -3.509,0.334 -6.47,3.486 -7.908,6.487 -2.258,4.719 -1.718,10.171 -1.203,15.204 0.03,0.29 0.353,0.605 0.667,0.457 8.191,-3.844 8.977,-13.272 9.55,-21.212 1.709,1.445 3.391,2.916 5.016,4.438 1.125,1.054 2.229,2.132 3.316,3.225 -3.338,0.587 -6.078,3.683 -7.392,6.617 -2.141,4.778 -1.467,10.205 -0.825,15.228 0.052,0.406 0.435,0.576 0.786,0.401 7.798,-3.904 8.501,-13.018 8.874,-20.745 1.847,1.923 3.635,3.902 5.357,5.938 -2.364,1.379 -4.13,3.986 -5.004,6.428 -1.77,4.95 -0.64,10.332 0.399,15.309 0.071,0.337 0.507,0.427 0.763,0.273 6.322,-3.814 7.305,-10.919 7.317,-17.706 0.13,0.17 0.264,0.337 0.394,0.508 -0.082,0.099 -0.08,0.248 0.008,0.343 -0.105,0.095 -0.167,0.235 -0.14,0.42 1.167,7.815 2.584,17.321 11.03,20.536 0.373,0.142 0.725,-0.082 0.736,-0.487 0.131,-4.85 0.262,-10.035 -2.026,-14.469 -1.542,-2.99 -4.559,-5.989 -8.062,-6.402 -0.64,-0.847 -1.302,-1.676 -1.962,-2.506 -0.008,-0.34 -0.016,-0.679 -0.025,-1.015 6.53,3.42 14.076,6.622 20.945,2.253 0.267,-0.169 0.325,-0.603 0.063,-0.809 -3.969,-3.129 -8.289,-6.539 -13.479,-7.16 -3.499,-0.417 -7.977,0.486 -10.057,3.624 -1.865,-2.2 -3.804,-4.337 -5.813,-6.408 7.477,1.674 16.192,3.209 21.941,-3.159 0.211,-0.234 0.155,-0.668 -0.154,-0.798 C 51.183,18.091 45.914,15.891 40.583,16.9 37.462,17.491 33.915,19.348 32.588,22.412 31.683,21.513 30.77,20.621 29.837,19.749 28.524,18.521 27.183,17.338 25.825,16.177 33.467,16.398 42.196,16.218 46.618,8.901 46.792,8.613 46.562,8.237 46.262,8.175 41.468,7.163 36.265,6.059 31.455,7.604 28.268,8.628 24.763,11.104 23.824,14.505 21.26,12.406 18.625,10.411 15.907,8.539 23.561,7.834 32.417,6.681 35.956,-1.193 36.078,-1.464 35.945,-1.891 35.601,-1.92 30.68,-2.343 25.393,-2.813 20.771,-0.684 17.669,0.746 14.451,3.708 14.017,7.286 9.631,4.387 5.062,1.754 0.289,-0.584 -0.087,-0.768 -0.37,-0.196 0,0"
             style="fill:#79aa99;fill-opacity:1;fill-rule:nonzero;stroke:none"
             id="path63" />
        </g>
        <path
           d="m 147.837,390.068 h 92.231 v 24.954 h -92.231 z"
           style="fill:#2b153c;fill-opacity:1;fill-rule:nonzero;stroke:none"
           id="path65" />
        <g
           id="g67"
           transform="translate(75.3252,78.4951)">
          <path
             d="m 0,0 h 221.829 l 9.318,6.805 V 323.727 H 9.656 L 0,315.589 Z"
             style="fill:#63ba9b;fill-opacity:1;fill-rule:nonzero;stroke:none"
             id="path69" />
        </g>
        <path
           d="M 84.981,85.3 H 306.473 V 402.222 H 84.981 Z"
           style="fill:#5aa4ab;fill-opacity:1;fill-rule:nonzero;stroke:none"
           id="path71" />
        <g
           id="g73"
           transform="translate(294.7598,110.4063)">
          <path
             d="m 0,0 -0.99,267.116 -194.908,-0.722 0.989,-267.117 z"
             style="fill:#f7f9f8;fill-opacity:1;fill-rule:nonzero;stroke:none"
             id="path75" />
        </g>
        <path
           d="M 306.363,85.3 H 84.981 v 317.741 h 221.382 z"
           style="fill:#a7d6c3;fill-opacity:1;fill-rule:nonzero;stroke:none"
           id="path77" />
        <g
           id="g79"
           transform="translate(270.9775,99.9355)">
          <path
             d="m 0,0 h -150.566 c -12.841,0 -23.348,10.507 -23.348,23.348 v 240.163 c 0,12.841 10.507,23.347 23.348,23.347 H 0 c 12.841,0 23.348,-10.506 23.348,-23.347 V 23.348 C 23.348,10.507 12.841,0 0,0"
             style="fill:#ffffff;fill-opacity:1;fill-rule:nonzero;stroke:none"
             id="path81" />
        </g>
        <g
           id="g83">
          <g
             id="g85" />
          <g
             id="g221">
            <g
               clip-path="url(#clipPath89)"
               opacity="0.539993"
               id="g219">
              <g
                 id="g133">
                <g
                   id="g123" />
                <g
                   id="g131">
                  <g
                     clip-path="url(#clipPath93)"
                     opacity="0.389999"
                     id="g129">
                    <g
                       transform="translate(271.209,310.3364)"
                       id="g127">
                      <path
                         d="m 0,0 h -127.414 c -4.459,0 -8.108,3.953 -8.108,8.785 0,4.831 3.649,8.784 8.108,8.784 L 0,17.569 c 4.459,0 8.108,-3.953 8.108,-8.784 C 8.108,3.953 4.459,0 0,0"
                         style="fill:#80decf;fill-opacity:1;fill-rule:nonzero;stroke:none"
                         id="path125" />
                    </g>
                  </g>
                </g>
              </g>
              <g
                 id="g145">
                <g
                   id="g135" />
                <g
                   id="g143">
                  <g
                     clip-path="url(#clipPath97)"
                     opacity="0.779999"
                     id="g141">
                    <g
                       transform="translate(271.209,283.7407)"
                       id="g139">
                      <path
                         d="m 0,0 h -127.414 c -4.459,0 -8.108,3.953 -8.108,8.784 0,4.832 3.649,8.785 8.108,8.785 L 0,17.569 c 4.459,0 8.108,-3.953 8.108,-8.785 C 8.108,3.953 4.459,0 0,0"
                         style="fill:#80decf;fill-opacity:1;fill-rule:nonzero;stroke:none"
                         id="path137" />
                    </g>
                  </g>
                </g>
              </g>
              <g
                 id="g157">
                <g
                   id="g147" />
                <g
                   id="g155">
                  <g
                     clip-path="url(#clipPath101)"
                     opacity="0.389999"
                     id="g153">
                    <g
                       transform="translate(271.209,257.145)"
                       id="g151">
                      <path
                         d="m 0,0 h -127.414 c -4.459,0 -8.108,3.953 -8.108,8.784 0,4.832 3.649,8.785 8.108,8.785 L 0,17.569 c 4.459,0 8.108,-3.953 8.108,-8.785 C 8.108,3.953 4.459,0 0,0"
                         style="fill:#80decf;fill-opacity:1;fill-rule:nonzero;stroke:none"
                         id="path149" />
                    </g>
                  </g>
                </g>
              </g>
              <g
                 id="g169">
                <g
                   id="g159" />
                <g
                   id="g167">
                  <g
                     clip-path="url(#clipPath105)"
                     opacity="0.779999"
                     id="g165">
                    <g
                       transform="translate(271.209,230.5488)"
                       id="g163">
                      <path
                         d="m 0,0 h -127.414 c -4.459,0 -8.108,3.953 -8.108,8.785 0,4.831 3.649,8.784 8.108,8.784 L 0,17.569 c 4.459,0 8.108,-3.953 8.108,-8.784 C 8.108,3.953 4.459,0 0,0"
                         style="fill:#80decf;fill-opacity:1;fill-rule:nonzero;stroke:none"
                         id="path161" />
                    </g>
                  </g>
                </g>
              </g>
              <g
                 id="g181">
                <g
                   id="g171" />
                <g
                   id="g179">
                  <g
                     clip-path="url(#clipPath109)"
                     opacity="0.389999"
                     id="g177">
                    <g
                       transform="translate(271.209,203.9531)"
                       id="g175">
                      <path
                         d="m 0,0 h -127.414 c -4.459,0 -8.108,3.953 -8.108,8.784 0,4.832 3.649,8.785 8.108,8.785 L 0,17.569 c 4.459,0 8.108,-3.953 8.108,-8.785 C 8.108,3.953 4.459,0 0,0"
                         style="fill:#80decf;fill-opacity:1;fill-rule:nonzero;stroke:none"
                         id="path173" />
                    </g>
                  </g>
                </g>
              </g>
              <g
                 id="g193">
                <g
                   id="g183" />
                <g
                   id="g191">
                  <g
                     clip-path="url(#clipPath113)"
                     opacity="0.779999"
                     id="g189">
                    <g
                       transform="translate(271.209,177.3574)"
                       id="g187">
                      <path
                         d="m 0,0 h -127.414 c -4.459,0 -8.108,3.953 -8.108,8.784 0,4.832 3.649,8.785 8.108,8.785 L 0,17.569 c 4.459,0 8.108,-3.953 8.108,-8.785 C 8.108,3.953 4.459,0 0,0"
                         style="fill:#80decf;fill-opacity:1;fill-rule:nonzero;stroke:none"
                         id="path185" />
                    </g>
                  </g>
                </g>
              </g>
              <g
                 id="g205">
                <g
                   id="g195" />
                <g
                   id="g203">
                  <g
                     clip-path="url(#clipPath117)"
                     opacity="0.389999"
                     id="g201">
                    <g
                       transform="translate(270.877,150.7617)"
                       id="g199">
                      <path
                         d="m 0,0 h -126.75 c -4.642,0 -8.44,3.798 -8.44,8.439 V 9.13 c 0,4.641 3.798,8.439 8.44,8.439 H 0 c 4.643,0 8.44,-3.798 8.44,-8.439 V 8.439 C 8.44,3.798 4.643,0 0,0"
                         style="fill:#80decf;fill-opacity:1;fill-rule:nonzero;stroke:none"
                         id="path197" />
                    </g>
                  </g>
                </g>
              </g>
              <g
                 id="g217">
                <g
                   id="g207" />
                <g
                   id="g215">
                  <g
                     clip-path="url(#clipPath121)"
                     opacity="0.779999"
                     id="g213">
                    <g
                       transform="translate(270.877,124.166)"
                       id="g211">
                      <path
                         d="m 0,0 h -126.75 c -4.642,0 -8.44,3.798 -8.44,8.439 v 0.69 c 0,4.642 3.798,8.44 8.44,8.44 H 0 c 4.643,0 8.44,-3.798 8.44,-8.44 V 8.439 C 8.44,3.798 4.643,0 0,0"
                         style="fill:#80decf;fill-opacity:1;fill-rule:nonzero;stroke:none"
                         id="path209" />
                    </g>
                  </g>
                </g>
              </g>
            </g>
          </g>
        </g>
        <g
           id="g223">
          <g
             id="g225" />
          <g
             id="g237">
            <g
               clip-path="url(#clipPath229)"
               opacity="0.389999"
               id="g235">
              <g
                 transform="translate(115.7681,310.3364)"
                 id="g233">
                <path
                   d="m 0,0 h 8.249 c 1.418,0 2.578,1.16 2.578,2.578 v 12.413 c 0,1.418 -1.16,2.578 -2.578,2.578 H 0 c -1.418,0 -2.579,-1.16 -2.579,-2.578 V 2.578 C -2.579,1.16 -1.418,0 0,0 Z"
                   style="fill:none;stroke:#80decf;stroke-width:1.439;stroke-linecap:butt;stroke-linejoin:miter;stroke-miterlimit:10;stroke-dasharray:none;stroke-opacity:1"
                   id="path231" />
              </g>
            </g>
          </g>
        </g>
        <g
           id="g239">
          <g
             id="g241" />
          <g
             id="g253">
            <g
               clip-path="url(#clipPath245)"
               opacity="0.779999"
               id="g251">
              <g
                 transform="translate(115.7681,283.7407)"
                 id="g249">
                <path
                   d="m 0,0 h 8.249 c 1.418,0 2.578,1.16 2.578,2.578 v 12.413 c 0,1.418 -1.16,2.578 -2.578,2.578 H 0 c -1.418,0 -2.579,-1.16 -2.579,-2.578 V 2.578 C -2.579,1.16 -1.418,0 0,0 Z"
                   style="fill:none;stroke:#80decf;stroke-width:1.439;stroke-linecap:butt;stroke-linejoin:miter;stroke-miterlimit:10;stroke-dasharray:none;stroke-opacity:1"
                   id="path247" />
              </g>
            </g>
          </g>
        </g>
        <g
           id="g255">
          <g
             id="g257" />
          <g
             id="g269">
            <g
               clip-path="url(#clipPath261)"
               opacity="0.389999"
               id="g267">
              <g
                 transform="translate(115.7681,257.145)"
                 id="g265">
                <path
                   d="m 0,0 h 8.249 c 1.418,0 2.578,1.16 2.578,2.578 v 12.413 c 0,1.418 -1.16,2.578 -2.578,2.578 H 0 c -1.418,0 -2.579,-1.16 -2.579,-2.578 V 2.578 C -2.579,1.16 -1.418,0 0,0 Z"
                   style="fill:none;stroke:#80decf;stroke-width:1.439;stroke-linecap:butt;stroke-linejoin:miter;stroke-miterlimit:10;stroke-dasharray:none;stroke-opacity:1"
                   id="path263" />
              </g>
            </g>
          </g>
        </g>
        <g
           id="g271">
          <g
             id="g273" />
          <g
             id="g285">
            <g
               clip-path="url(#clipPath277)"
               opacity="0.779999"
               id="g283">
              <g
                 transform="translate(115.7681,230.5488)"
                 id="g281">
                <path
                   d="m 0,0 h 8.249 c 1.418,0 2.578,1.16 2.578,2.578 v 12.413 c 0,1.418 -1.16,2.578 -2.578,2.578 H 0 c -1.418,0 -2.579,-1.16 -2.579,-2.578 V 2.578 C -2.579,1.16 -1.418,0 0,0 Z"
                   style="fill:none;stroke:#80decf;stroke-width:1.439;stroke-linecap:butt;stroke-linejoin:miter;stroke-miterlimit:10;stroke-dasharray:none;stroke-opacity:1"
                   id="path279" />
              </g>
            </g>
          </g>
        </g>
        <g
           id="g287">
          <g
             id="g289" />
          <g
             id="g301">
            <g
               clip-path="url(#clipPath293)"
               opacity="0.389999"
               id="g299">
              <g
                 transform="translate(115.7681,203.9531)"
                 id="g297">
                <path
                   d="m 0,0 h 8.249 c 1.418,0 2.578,1.16 2.578,2.578 v 12.413 c 0,1.418 -1.16,2.578 -2.578,2.578 H 0 c -1.418,0 -2.579,-1.16 -2.579,-2.578 V 2.578 C -2.579,1.16 -1.418,0 0,0 Z"
                   style="fill:none;stroke:#80decf;stroke-width:1.439;stroke-linecap:butt;stroke-linejoin:miter;stroke-miterlimit:10;stroke-dasharray:none;stroke-opacity:1"
                   id="path295" />
              </g>
            </g>
          </g>
        </g>
        <g
           id="g303">
          <g
             id="g305" />
          <g
             id="g317">
            <g
               clip-path="url(#clipPath309)"
               opacity="0.779999"
               id="g315">
              <g
                 transform="translate(115.7681,177.3574)"
                 id="g313">
                <path
                   d="m 0,0 h 8.249 c 1.418,0 2.578,1.16 2.578,2.578 V 14.99 c 0,1.419 -1.16,2.579 -2.578,2.579 H 0 c -1.418,0 -2.579,-1.16 -2.579,-2.579 V 2.578 C -2.579,1.16 -1.418,0 0,0 Z"
                   style="fill:none;stroke:#80decf;stroke-width:1.439;stroke-linecap:butt;stroke-linejoin:miter;stroke-miterlimit:10;stroke-dasharray:none;stroke-opacity:1"
                   id="path311" />
              </g>
            </g>
          </g>
        </g>
        <g
           id="g319">
          <g
             id="g321" />
          <g
             id="g333">
            <g
               clip-path="url(#clipPath325)"
               opacity="0.389999"
               id="g331">
              <g
                 transform="translate(115.7681,150.7617)"
                 id="g329">
                <path
                   d="m 0,0 h 8.249 c 1.418,0 2.578,1.16 2.578,2.578 V 14.99 c 0,1.419 -1.16,2.579 -2.578,2.579 H 0 c -1.418,0 -2.579,-1.16 -2.579,-2.579 V 2.578 C -2.579,1.16 -1.418,0 0,0 Z"
                   style="fill:none;stroke:#80decf;stroke-width:1.439;stroke-linecap:butt;stroke-linejoin:miter;stroke-miterlimit:10;stroke-dasharray:none;stroke-opacity:1"
                   id="path327" />
              </g>
            </g>
          </g>
        </g>
        <g
           id="g335">
          <g
             id="g337" />
          <g
             id="g349">
            <g
               clip-path="url(#clipPath341)"
               opacity="0.779999"
               id="g347">
              <g
                 transform="translate(115.7681,124.166)"
                 id="g345">
                <path
                   d="m 0,0 h 8.249 c 1.418,0 2.578,1.16 2.578,2.578 V 14.99 c 0,1.419 -1.16,2.579 -2.578,2.579 H 0 c -1.418,0 -2.579,-1.161 -2.579,-2.579 V 2.578 C -2.579,1.16 -1.418,0 0,0 Z"
                   style="fill:none;stroke:#80decf;stroke-width:1.439;stroke-linecap:butt;stroke-linejoin:miter;stroke-miterlimit:10;stroke-dasharray:none;stroke-opacity:1"
                   id="path343" />
              </g>
            </g>
          </g>
        </g>
        <g
           id="g351"
           transform="translate(143.2222,343.2935)">
          <path
             d="m 0,0 -25.606,-21.088 -6.736,8.082 -5.298,-4.415 11.125,-13.349 30.899,25.447 z"
             style="fill:#55275b;fill-opacity:1;fill-rule:nonzero;stroke:none"
             id="path353" />
        </g>
        <g
           id="g355"
           transform="translate(143.2222,263.5034)">
          <path
             d="m 0,0 -25.606,-21.088 -6.736,8.082 -5.298,-4.415 11.125,-13.349 30.899,25.447 z"
             style="fill:#55275b;fill-opacity:1;fill-rule:nonzero;stroke:none"
             id="path357" />
        </g>
        <g
           id="g359"
           transform="translate(143.2222,157.1201)">
          <path
             d="m 0,0 -25.606,-21.089 -6.736,8.083 -5.298,-4.416 11.125,-13.349 30.899,25.448 z"
             style="fill:#55275b;fill-opacity:1;fill-rule:nonzero;stroke:none"
             id="path361" />
        </g>
        <path
           d="m 152.84,390.068 h 92.231 v 24.954 H 152.84 Z"
           style="fill:#37124e;fill-opacity:1;fill-rule:nonzero;stroke:none"
           id="path363" />
        <g
           id="g365"
           transform="translate(152.8403,390.0679)">
          <path
             d="M 0,0 H 92.231 L 0,24.954 Z"
             style="fill:#2b153c;fill-opacity:1;fill-rule:nonzero;stroke:none"
             id="path367" />
        </g>
        <g
           id="g369"
           transform="translate(183.5234,422.4009)">
          <path
             d="m 0,0 c 0,-8.405 6.814,-15.219 15.219,-15.219 8.405,0 15.219,6.814 15.219,15.219 0,8.405 -6.814,15.219 -15.219,15.219 C 6.814,15.219 0,8.405 0,0 Z"
             style="fill:none;stroke:#37124e;stroke-width:9;stroke-linecap:butt;stroke-linejoin:miter;stroke-miterlimit:10;stroke-dasharray:none;stroke-opacity:1"
             id="path371" />
        </g>
        <g
           id="g373"
           transform="translate(394.7607,249.4839)">
          <path
             d="m 0,0 c -0.168,0.218 -0.44,0.324 -0.711,0.277 -1.221,-0.213 -4.595,-0.806 -5.033,-0.931 -0.377,-0.108 -2.688,0.076 -4.033,0.196 -0.547,0.049 -0.972,-0.501 -0.754,-1.005 0.182,-0.419 0.515,-0.791 1.127,-0.755 1.356,0.081 3.552,0.065 3.915,-1.718 0.983,-4.855 -4.244,-6.989 -3.553,-8.657 0.003,-0.008 0.006,-0.015 0.009,-0.023 0.219,-0.507 0.93,-0.551 1.245,-0.096 0.105,0.151 0.232,0.329 0.377,0.521 0.074,0.099 0.175,0.175 0.286,0.227 0.758,0.359 1.949,1.218 2.821,2.644 0.053,0.087 0.125,0.162 0.209,0.22 1.246,0.844 2.089,1.912 2.502,2.703 0.36,0.687 1.476,4.411 1.826,5.594 0.068,0.227 0.022,0.471 -0.123,0.659 z"
             style="fill:#edba85;fill-opacity:1;fill-rule:nonzero;stroke:none"
             id="path375" />
        </g>
        <g
           id="g377"
           transform="translate(408.0098,383.0093)">
          <path
             d="m 0,0 c 0,0 3.954,-6.133 -13.041,-18.415 -4.874,-3.522 -18.062,-18.065 -6.617,-32.095 5.796,-7.106 -6.11,-15.761 -14.609,-16.895 -10.949,-1.461 -14.538,0.216 -14.538,0.216 0.813,-0.934 3.665,1.826 3.865,2.05 1.863,2.092 2.471,4.855 2.772,7.286 0.969,7.835 -10.223,3.726 -10.191,19.83 0.014,7.199 8.888,9.084 8.892,21.764 10e-4,3.354 0.359,7.93 2.755,10.826 C -32.835,4.088 -15.223,4.078 0,0"
             style="fill:#49174f;fill-opacity:1;fill-rule:nonzero;stroke:none"
             id="path379" />
        </g>
        <g
           id="g381"
           transform="translate(394.0635,391.0845)">
          <path
             d="m 0,0 c -0.03,2.031 18.878,-3.636 20.237,-4.544 14.851,-9.921 2.872,-28.33 11.091,-43.356 6.695,-12.241 3.57,-22.331 -5.092,-28.178 -9.414,-6.354 -26.509,14.168 -26.509,14.168 0,0 0.275,61.762 0.273,61.91"
             style="fill:#49174f;fill-opacity:1;fill-rule:nonzero;stroke:none"
             id="path383" />
        </g>
        <g
           id="g385"
           transform="translate(371.4248,230.3838)">
          <path
             d="m 0,0 c -0.898,-6.381 -3.615,-42.509 -2.021,-80.84 1.367,-32.888 -0.25,-59.951 -0.25,-59.951 l 7.703,0.671 c 0,0 14.625,54.729 12.409,76.988 4.926,37.64 -2.235,66.424 -2.235,66.424 L 2.593,10.099 Z"
             style="fill:#2b153c;fill-opacity:1;fill-rule:nonzero;stroke:none"
             id="path387" />
        </g>
        <g
           id="g389"
           transform="translate(399.3496,249.5937)">
          <path
             d="m 0,0 c 0,0 10.058,-18.368 12.145,-27.945 2.085,-9.576 0.785,-107.434 -3.129,-131.486 -4.733,-1.366 -7.239,-2.09 -7.239,-2.09 0,0 -3.829,41.886 -8.466,77.783 -3.267,25.277 -7.778,47.34 -7.969,50.774 -4.21,10.849 -8.055,18.94 -8.055,18.94 z"
             style="fill:#37124e;fill-opacity:1;fill-rule:nonzero;stroke:none"
             id="path391" />
        </g>
        <g
           id="g393"
           transform="translate(380.0742,235.4033)">
          <path
             d="M 0,0 C 0.561,-4.085 2.014,-10.021 3.901,-10.904 L 2.631,0 Z m 4.312,-14.342 -0.301,2.493 c -3.407,0.69 -4.788,11.032 -4.937,12.231 L -0.986,0.87 H 3.405 L 5.148,-14.098 5.95,-16.36 5.131,-16.651 Z"
             style="fill:#21276f;fill-opacity:1;fill-rule:nonzero;stroke:none"
             id="path395" />
        </g>
        <g
           id="g397"
           transform="translate(401.127,88.0723)">
          <path
             d="M 0,0 1.242,-24.673 3.539,-24.01 7.238,2.091 Z"
             style="fill:#efc573;fill-opacity:1;fill-rule:nonzero;stroke:none"
             id="path399" />
        </g>
        <g
           id="g401"
           transform="translate(376.8115,91.4395)">
          <path
             d="m 0,0 -5.257,-25.552 -3.042,0.052 0.734,23.901 c 0,0 4.239,1.951 7.565,1.599"
             style="fill:#efc573;fill-opacity:1;fill-rule:nonzero;stroke:none"
             id="path403" />
        </g>
        <g
           id="g405"
           transform="translate(379.5596,96.6143)">
          <path
             d="m 0,0 -2.183,-10.131 -10.235,0.028 1.969,9.526 z"
             style="fill:#704b96;fill-opacity:1;fill-rule:nonzero;stroke:none"
             id="path407" />
        </g>
        <g
           id="g409"
           transform="translate(410.5156,96.8174)">
          <path
             d="m 0,0 -10.997,-3.176 0.305,-9.412 10.162,2.934 z"
             style="fill:#704b96;fill-opacity:1;fill-rule:nonzero;stroke:none"
             id="path411" />
        </g>
        <g
           id="g413"
           transform="translate(399.1611,333.0884)">
          <path
             d="m 0,0 c 0,0 -6.606,4.817 -14.984,0 -1.713,-5.542 -2.801,-7.633 -2.801,-7.633 L 0,-7.28 c 0,0 -2.354,4.708 0,7.28"
             style="fill:#cb4f44;fill-opacity:1;fill-rule:nonzero;stroke:none"
             id="path415" />
        </g>
        <g
           id="g417"
           transform="translate(397.8965,326.0254)">
          <path
             d="m 0,0 -2.571,1.086 h -10.58 c 0,0 -8.293,-18.722 -1.317,-18.576 C -7.492,-17.346 0,-11.374 0,-11.374 Z"
             style="fill:#e9e9e9;fill-opacity:1;fill-rule:nonzero;stroke:none"
             id="path419" />
        </g>
        <g
           id="g421"
           transform="translate(395.749,325.0806)">
          <path
             d="m 0,0 c 0,0 -3.144,-9.77 -7.635,-8.947 -4.491,0.823 -3.369,10.978 -3.369,10.978 l -6.772,-5.513 -4.13,-32.154 v -47.341 c 0,0 3.772,-4.405 9.756,-4.922 5.984,-0.516 10.6,3.893 10.963,4.716 0.362,0.823 -6.973,27.765 -3.415,40.229 C -1.043,-30.49 0,0 0,0"
             style="fill:#e2e2e2;fill-opacity:1;fill-rule:nonzero;stroke:none"
             id="path423" />
        </g>
        <g
           id="g425">
          <g
             id="g427" />
          <g
             id="g439">
            <g
               clip-path="url(#clipPath431)"
               id="g437">
              <g
                 transform="translate(384.7451,327.1118)"
                 id="g435">
                <path
                   d="m 0,0 c 0,0 -5.949,-26.261 -7.284,-31.058 -1.335,-4.796 1.054,-42.176 0.946,-47.609 -0.107,-5.433 0.997,-17.379 -7.053,-21.403 1.512,29.444 4.278,84.037 4.278,84.037 l 6.82,14.397 z"
                   style="fill:#d8cad6;fill-opacity:1;fill-rule:nonzero;stroke:none"
                   id="path433" />
              </g>
            </g>
          </g>
        </g>
        <g
           id="g441"
           transform="translate(369.2793,226.1279)">
          <path
             d="m 0,0 c 0,0 6.81,1.448 6.81,11.01 0,9.562 0.259,46.575 1.18,56.322 0.92,9.747 7.056,37.781 7.056,37.781 l -0.149,1.847 c 0,0 -1.858,-5.759 -4.139,-7.497 -2.282,-1.739 -4.442,-3.371 -4.442,-3.371 0,0 -7.392,-22.273 -6.859,-27.489 C -0.01,63.387 2.825,56.65 3.26,47.305 3.694,37.96 -0.218,11.809 0,0"
             style="fill:#e3938e;fill-opacity:1;fill-rule:nonzero;stroke:none"
             id="path443" />
        </g>
        <g
           id="g445"
           transform="translate(387.8584,251.4883)">
          <path
             d="M 0,0 C 4.143,0.219 11.193,3.594 11.491,3.737 L 11.114,4.52 C 11.043,4.486 3.922,1.078 -0.046,0.868 Z"
             style="fill:#aa3e36;fill-opacity:1;fill-rule:nonzero;stroke:none"
             id="path447" />
        </g>
        <g
           id="g449"
           transform="translate(382.8398,325.6821)">
          <path
             d="m 0,0 c -1.304,-4.835 0.389,-9.496 3.78,-10.411 3.392,-0.914 7.199,2.264 8.502,7.098 C 13.586,1.521 11.895,6.183 8.503,7.097 5.11,8.012 1.305,4.834 0,0"
             style="fill:#ba4740;fill-opacity:1;fill-rule:nonzero;stroke:none"
             id="path451" />
        </g>
        <g
           id="g453"
           transform="translate(393.9414,322.4526)">
          <path
             d="M 0,0 C -4.497,-6.581 -11.084,-5.041 -9.827,1.786 L -9.63,15.58 0.532,16.652 1.026,3.536 C 1.073,2.278 0.71,1.039 0,0"
             style="fill:#edbc7e;fill-opacity:1;fill-rule:nonzero;stroke:none"
             id="path455" />
        </g>
        <g
           id="g457"
           transform="translate(384.2949,326.2656)">
          <path
             d="m 0,0 10.265,11.382 -0.114,1.91 -10.899,-0.644 0.582,-9.829 C -0.113,1.92 0,0 0,0"
             style="fill:#e79b52;fill-opacity:1;fill-rule:evenodd;stroke:none"
             id="path459" />
        </g>
        <g
           id="g461"
           transform="translate(386.7627,336.8081)">
          <path
             d="m 0,0 v 0 c -8.834,0.201 -15.166,5.329 -14.868,13.405 l 0.877,23.803 c 0.298,8.076 7.701,14.46 16.534,14.26 8.834,-0.201 21.531,-5.919 21.233,-13.995 L 18.648,13.995 C 16.118,4.869 8.834,-0.201 0,0"
             style="fill:#e79b52;fill-opacity:1;fill-rule:nonzero;stroke:none"
             id="path463" />
        </g>
        <g
           id="g465"
           transform="translate(383.4111,336.3999)">
          <path
             d="m 0,0 v 0 c -13.556,0.308 -18.295,13.023 -14.562,21.499 2.139,4.854 0.782,11.998 0.782,11.998 0.299,8.1 7.735,17.909 16.29,17.715 C 11.064,51.018 17.757,44.294 17.458,36.194 17.458,36.194 20.391,0.049 0,0"
             style="fill:#edba8d;fill-opacity:1;fill-rule:nonzero;stroke:none"
             id="path467" />
        </g>
        <g
           id="g469"
           transform="translate(384.1543,336.3989)">
          <path
             d="m 0,0 v 0 c -13.556,0.308 -18.295,13.024 -14.562,21.499 2.139,4.855 0.782,11.998 0.782,11.998 0.299,8.1 7.735,17.91 16.29,17.715 C 11.064,51.018 17.757,44.294 17.458,36.194 17.458,36.194 20.39,0.049 0,0"
             style="fill:#edbc7e;fill-opacity:1;fill-rule:nonzero;stroke:none"
             id="path471" />
        </g>
        <g
           id="g473"
           transform="translate(401.7256,365.6641)">
          <path
             d="m 0,0 c -3.589,0.953 -7.094,2.27 -10.724,3.064 -4.609,1.009 -9.512,1.086 -14.218,1.099 -2.123,0.006 -4.248,-0.048 -6.37,-0.159 -0.024,0.146 -0.04,0.228 -0.04,0.228 0.299,8.1 7.736,17.91 16.29,17.715 8.555,-0.194 15.248,-6.918 14.949,-15.018 0,0 0.23,-2.84 0.113,-6.929"
             style="fill:#e59056;fill-opacity:1;fill-rule:nonzero;stroke:none"
             id="path475" />
        </g>
        <g
           id="g477">
          <g
             id="g479" />
          <g
             id="g491">
            <g
               clip-path="url(#clipPath483)"
               opacity="0.380005"
               id="g489">
              <g
                 transform="translate(374.1113,382.896)"
                 id="g487">
                <path
                   d="m 0,0 c 0,0 -4.996,-12.886 -5.072,-15.979 0,0 0.174,13.545 5.072,15.979"
                   style="fill:#d38462;fill-opacity:1;fill-rule:nonzero;stroke:none"
                   id="path485" />
              </g>
            </g>
          </g>
        </g>
        <g
           id="g493"
           transform="translate(387.7754,360.3174)">
          <path
             d="M 0,0 C 0.059,-0.998 0.863,-1.762 1.796,-1.707 2.729,-1.651 3.438,-0.798 3.379,0.2 3.319,1.197 2.516,1.961 1.582,1.906 0.649,1.851 -0.06,0.997 0,0"
             style="fill:#000000;fill-opacity:1;fill-rule:nonzero;stroke:none"
             id="path495" />
        </g>
        <g
           id="g497"
           transform="translate(372.1543,361.9067)">
          <path
             d="M 0,0 C 0.059,-0.998 0.863,-1.761 1.796,-1.706 2.729,-1.651 3.438,-0.797 3.378,0.2 3.319,1.197 2.515,1.961 1.582,1.906 0.649,1.851 -0.06,0.998 0,0"
             style="fill:#000000;fill-opacity:1;fill-rule:nonzero;stroke:none"
             id="path499" />
        </g>
        <g
           id="g501"
           transform="translate(395.5566,364.2852)">
          <path
             d="M 0,0 C -0.912,0.942 -2.046,1.548 -3.205,1.612 -3.794,1.642 -4.352,1.474 -4.938,1.48 -5.543,1.52 -6.147,1.455 -6.899,1.597 L -6.954,1.73 c 0.459,0.628 1.113,0.935 1.8,1.172 0.702,0.203 1.467,0.053 2.162,-0.159 1.444,-0.378 2.539,-1.47 3.11,-2.661 z"
             style="fill:#3a3a85;fill-opacity:1;fill-rule:nonzero;stroke:none"
             id="path503" />
        </g>
        <g
           id="g505"
           transform="translate(371.6562,368.1128)">
          <path
             d="M 0,0 C 0.37,0.751 1.25,1.419 2.28,1.397 2.77,1.415 3.302,1.388 3.682,1.097 4.04,0.778 4.359,0.442 4.444,-0.122 L 4.36,-0.229 C 3.803,-0.291 3.441,-0.173 3.07,-0.126 2.724,-0.053 2.475,0.195 2.153,0.311 1.539,0.524 0.787,0.392 0.103,-0.091 Z"
             style="fill:#3a3a85;fill-opacity:1;fill-rule:nonzero;stroke:none"
             id="path507" />
        </g>
        <g
           id="g509"
           transform="translate(405.1152,356.2515)">
          <path
             d="m 0,0 c 0,0 0.202,3.753 -2.432,7.849 -3.39,5.273 -1.276,10.148 -1.865,10.454 -0.432,0.223 -0.872,-6.516 -1.329,-6.29 -7.004,3.464 -18.472,3.464 -28.671,2.861 -1.913,-0.113 -3.078,6.304 -3.067,7.375 0.125,12.772 14.467,15.261 24.273,14.504 C -4.236,36.07 13.383,33.335 3.663,4.889"
             style="fill:#49174f;fill-opacity:1;fill-rule:nonzero;stroke:none"
             id="path511" />
        </g>
        <g
           id="g513"
           transform="translate(403.3672,353.0688)">
          <path
             d="M 0,0 C -1.163,-2.333 -0.808,-4.765 0.794,-5.435 2.396,-6.104 4.637,-4.755 5.8,-2.423 6.963,-0.091 6.607,2.342 5.006,3.011 3.404,3.68 1.163,2.332 0,0"
             style="fill:#e79b52;fill-opacity:1;fill-rule:nonzero;stroke:none"
             id="path515" />
        </g>
        <g
           id="g517"
           transform="translate(405.2568,354.0059)">
          <path
             d="M 0,0 C 0.252,0.535 0.571,0.977 1.245,1.16 1.92,1.342 2.926,1.064 3.037,-0.855 3.147,-2.774 1.885,-4.513 0.851,-4.345 0.522,-4.292 0.317,-3.836 0.189,-3.239 0.797,-3.021 1.141,-2.281 0.966,-1.513 0.835,-0.938 0.447,-0.501 -0.01,-0.345 -0.005,-0.13 0,0 0,0"
             style="fill:#edbc7e;fill-opacity:1;fill-rule:evenodd;stroke:none"
             id="path519" />
        </g>
        <g
           id="g521"
           transform="translate(406.4678,348.1294)">
          <path
             d="M 0,0 C 0.707,0 0.708,1.1 0,1.1 -0.708,1.1 -0.709,0 0,0"
             style="fill:#f8e766;fill-opacity:1;fill-rule:nonzero;stroke:none"
             id="path523" />
        </g>
        <g
           id="g525"
           transform="translate(382.2002,365.7427)">
          <path
             d="m 0,0 -5.322,-11.65 4.308,-0.531 z"
             style="fill:#e79b52;fill-opacity:1;fill-rule:nonzero;stroke:none"
             id="path527" />
        </g>
        <g
           id="g529"
           transform="translate(382.2002,365.7427)">
          <path
             d="m 0,0 -5.322,-11.65 2.362,-0.291 z"
             style="fill:#eaac60;fill-opacity:1;fill-rule:nonzero;stroke:none"
             id="path531" />
        </g>
        <g
           id="g533"
           transform="translate(405.1152,356.2515)">
          <path
             d="m 0,0 c 0,0 5.979,-0.031 4.271,-8.66 0,0 10.538,26.578 3.971,33.892 C 1.676,32.546 0,0 0,0"
             style="fill:#49174f;fill-opacity:1;fill-rule:nonzero;stroke:none"
             id="path535" />
        </g>
        <g
           id="g537"
           transform="translate(385.4551,350.147)">
          <path
             d="m 0,0 c 0,0 -5.616,-1.918 -10.425,-0.536 0.249,-1.304 1.88,-4.693 1.88,-4.693 0,0 6.705,-1.086 8.545,5.229"
             style="fill:#3b2314;fill-opacity:1;fill-rule:nonzero;stroke:none"
             id="path539" />
        </g>
        <g
           id="g541"
           transform="translate(375.0303,349.6113)">
          <path
             d="m 0,0 1.306,-2.299 c 0,0 5.52,-0.718 8.849,2.749 C 6.437,-0.59 2.449,-0.688 0,0"
             style="fill:#ffffff;fill-opacity:1;fill-rule:nonzero;stroke:none"
             id="path543" />
        </g>
        <g
           id="g545"
           transform="translate(376.9102,344.9175)">
          <path
             d="M 0,0 C 0,0 1.311,1.106 2.562,1.537 3.813,1.968 6.896,2.203 6.896,2.203 6.896,2.203 4.695,-0.619 0,0"
             style="fill:#b9603c;fill-opacity:1;fill-rule:nonzero;stroke:none"
             id="path547" />
        </g>
        <g
           id="g549"
           transform="translate(407.958,309.3032)">
          <path
             d="m 0,0 0.451,-8.625 c 0,0 -11.175,-20.822 -11.03,-27.56 0.144,-6.736 4.088,-21.547 12.472,-36.845 -9.539,-7.607 -19.165,-13.694 -22.588,0.866 -3.423,14.561 -4.367,47.812 -1.831,59.33 2.535,11.518 7.916,26.844 7.463,32.168 0.997,0.435 6.266,4.451 6.266,4.451 0,0 -0.965,-7.337 3.957,-12.712 C -2.029,8.004 -0.218,4.156 0,0"
             style="fill:#e3938e;fill-opacity:1;fill-rule:nonzero;stroke:none"
             id="path551" />
        </g>
        <g
           id="g553"
           transform="translate(406.627,61.2451)">
          <path
             d="m 0,0 c 0,0 -0.687,1.606 -1.178,2.57 -0.49,0.963 -0.887,2.003 -0.887,2.003 L -4.347,3.914 c 0,0 -0.764,-3.329 -1.558,-4.768 -0.795,-1.441 -2.729,-2.993 -2.729,-2.993 0,0 -0.617,-2.634 3.643,-0.71 4.259,1.926 4.514,3.003 4.514,3.003 z"
             style="fill:#efc573;fill-opacity:1;fill-rule:nonzero;stroke:none"
             id="path555" />
        </g>
        <g
           id="g557"
           transform="translate(406.1738,62.2754)">
          <path
             d="m 0,0 c 0,0 1.677,-2.883 1.167,-3.502 -0.38,-0.463 -1.718,-0.831 -2.424,-1.06 -0.706,-0.23 -1.204,-1.713 -2.412,-2.345 -1.208,-0.632 -5.697,-2.031 -6.539,-2.146 -0.843,-0.114 -2.122,-0.587 -1.693,0.335 0.428,0.923 3.72,3.841 3.72,3.841 0,0 0.238,-0.755 2.812,-0.035 2.573,0.719 3.879,2.289 4.247,3.041 C -0.754,-1.118 -0.35,-0.126 0,0"
             style="fill:#e3938e;fill-opacity:1;fill-rule:nonzero;stroke:none"
             id="path559" />
        </g>
        <g
           id="g561"
           transform="translate(407.3877,59.5459)">
          <path
             d="m 0,0 0.312,-2.596 -0.784,-0.226 -1.45,1.572 z"
             style="fill:#ae4c8c;fill-opacity:1;fill-rule:nonzero;stroke:none"
             id="path563" />
        </g>
        <g
           id="g565"
           transform="translate(372.0947,62.1338)">
          <path
             d="m 0,0 c 0,0 -0.183,1.739 -0.366,2.805 -0.185,1.064 -0.257,2.174 -0.257,2.174 l -2.374,0.044 c 0,0 -1.713,-2.955 -2.898,-4.096 -1.183,-1.141 -3.489,-2.053 -3.489,-2.053 0,0 -1.367,-2.335 3.271,-1.753 4.637,0.582 5.199,1.536 5.199,1.536 z"
             style="fill:#efc573;fill-opacity:1;fill-rule:nonzero;stroke:none"
             id="path567" />
        </g>
        <g
           id="g569"
           transform="translate(371.9668,63.2529)">
          <path
             d="m 0,0 c 0,0 0.75,-3.249 0.081,-3.691 -0.5,-0.33 -1.886,-0.287 -2.629,-0.297 C -3.29,-4 -4.204,-5.27 -5.545,-5.517 c -1.341,-0.247 -6.043,-0.258 -6.881,-0.12 -0.839,0.14 -2.201,0.066 -1.519,0.821 0.682,0.754 4.689,2.571 4.689,2.571 0,0 0.004,-0.791 2.675,-0.864 2.671,-0.073 4.383,1.043 4.956,1.653 C -1.051,-0.847 -0.372,-0.018 0,0"
             style="fill:#e3938e;fill-opacity:1;fill-rule:nonzero;stroke:none"
             id="path571" />
        </g>
        <g
           id="g573"
           transform="translate(372.3203,60.2861)">
          <path
             d="m 0,0 -0.468,-2.572 -0.816,0.015 -0.921,1.931 z"
             style="fill:#ae4c8c;fill-opacity:1;fill-rule:nonzero;stroke:none"
             id="path575" />
        </g>
        <g
           id="g577"
           transform="translate(398.6406,324.8032)">
          <path
             d="m 0,0 c 3.321,-0.133 7.789,-4.293 14.452,-14.068 6.663,-9.774 13.823,-27.068 15.419,-32.702 1.934,-6.825 -5.261,-9.983 -12.042,-0.158 C 13.285,-40.344 6.328,-21.12 4.46,-16.037 2.593,-10.954 0,0 0,0"
             style="fill:#e3938e;fill-opacity:1;fill-rule:nonzero;stroke:none"
             id="path579" />
        </g>
        <g
           id="g581"
           transform="translate(348.8701,269.6738)">
          <path
             d="m 0,0 c 1.731,-3.217 6.124,-3.734 8.576,-1.027 15.886,17.538 24.774,45.403 21.851,51.552 -0.091,0.19 -0.193,0.367 -0.301,0.524 -0.641,0.926 -1.595,1.29 -2.686,1.027 C 23.087,51.023 16.362,38.869 13.673,33.692 9.575,25.805 2.199,12.214 -0.384,5.567 -0.994,3.997 -0.799,1.483 0,0"
             style="fill:#e3938e;fill-opacity:1;fill-rule:nonzero;stroke:none"
             id="path583" />
        </g>
        <g
           id="g585"
           transform="translate(309.5723,261.9287)">
          <path
             d="m 0,0 c 8.429,-1.004 32.49,3.042 36.72,3.389 2.99,0.245 6.956,0.9 9.555,2.683 7.976,5.472 -0.484,8.845 -3.544,8.448 -5.325,-0.69 -44.9,-7.673 -44.812,-8.122 0,0 1.714,-6.355 2.081,-6.398"
             style="fill:#e3938e;fill-opacity:1;fill-rule:nonzero;stroke:none"
             id="path587" />
        </g>
        <g
           id="g589"
           transform="translate(292.96,288.4629)">
          <path
             d="m 0,0 -7.943,-17.2 130.767,-54.25 7.943,17.2 -5.449,2.263 z"
             style="fill:#a7d6c3;fill-opacity:1;fill-rule:nonzero;stroke:none"
             id="path591" />
        </g>
        <g
           id="g593"
           transform="translate(289.166,280.2466)">
          <path
             d="m 0,0 125.317,-51.989 5.449,-2.261 4.43,9.595 L 4.43,9.594 Z"
             style="fill:#63ba9b;fill-opacity:1;fill-rule:nonzero;stroke:none"
             id="path595" />
        </g>
        <g
           id="g597"
           transform="translate(267.3721,289.2876)">
          <path
             d="M 0,0 4.342,-4.656 6.556,0.141 Z"
             style="fill:#312f58;fill-opacity:1;fill-rule:nonzero;stroke:none"
             id="path599" />
        </g>
        <g
           id="g601"
           transform="translate(271.7139,284.6313)">
          <path
             d="M 0,0 13.021,-13.977 21.882,5.209 2.214,4.797 Z"
             style="fill:#e2e2e2;fill-opacity:1;fill-rule:nonzero;stroke:none"
             id="path603" />
        </g>
        <g
           id="g605"
           transform="translate(410.0596,241.5244)">
          <path
             d="m 0,0 -8.859,-19.188 -4.086,1.699 8.86,19.183 z"
             style="fill:#2b153c;fill-opacity:1;fill-rule:nonzero;stroke:none"
             id="path607" />
        </g>
        <g
           id="g609"
           transform="translate(400.665,221.9775)">
          <path
             d="M 0,0 9.177,19.643 24.475,13.285 15.298,-6.358 Z"
             style="fill:#ba4740;fill-opacity:1;fill-rule:nonzero;stroke:none"
             id="path611" />
        </g>
        <g
           id="g613"
           transform="translate(304.4189,262.3916)">
          <path
             d="m 0,0 c 0,0 -5.605,0.199 -7.81,-0.193 -1.359,-0.243 -1.928,-0.453 -1.928,-0.453 0,0 -0.79,2.329 0.019,2.562 0.809,0.232 5.227,-0.251 5.227,-0.251 z"
             style="fill:#edbc7e;fill-opacity:1;fill-rule:nonzero;stroke:none"
             id="path615" />
        </g>
        <g
           id="g617"
           transform="translate(302.1973,266.6328)">
          <path
             d="m 0,0 c -0.064,0.025 -0.144,0.042 -0.2,0.07 -1.736,0.886 -1.901,3.58 -1.674,4.7 0.461,2.281 -2.065,3.863 -2.065,3.863 l -0.094,-5.931 0.89,-2.038 -3.174,2.858 c 0,0 -0.664,2.407 -0.425,3.213 0.239,0.806 0.639,2.794 -1.625,3.709 -0.578,-2.486 -0.802,-3.972 -0.802,-3.972 0,0 0.676,-3.009 0.985,-3.986 -0.592,0.927 -2.876,3.666 -2.826,3.59 0.06,-0.087 0.89,3.267 -0.448,4.226 -1.106,-1.308 -1.627,-4.266 -1.627,-4.266 0,0 -1.216,3.078 -3.173,3.245 -0.047,-1.369 0.964,-4.33 0.964,-4.33 0,0 3.833,-5.291 4.803,-5.793 0.971,-0.502 17.908,-4.702 17.908,-4.702 0,0 0.399,0.413 0.81,1.004 C 8.053,-4.402 7.878,-4.264 7.703,-4.127 4.852,-3.336 2.18,-1.944 0,0"
             style="fill:#edbc7e;fill-opacity:1;fill-rule:nonzero;stroke:none"
             id="path619" />
        </g>
        <g
           id="g621"
           transform="translate(394.5684,248.582)">
          <path
             d="m 0,0 c -1.841,-0.039 -3.709,-0.026 -5.497,-0.532 -0.704,-0.199 -1.66,-0.337 -2.232,-0.825 -0.328,-0.281 -0.462,-0.723 -0.641,-1.102 -0.22,-0.467 -0.456,-0.927 -0.731,-1.364 -0.457,-0.727 -6.416,-6.633 -6.603,-6.332 0,0 -1.172,1.872 -2.005,1.116 -0.833,-0.757 0.414,-3.625 1.559,-4.169 1.144,-0.544 7.583,-1.185 9.276,0.194 1.692,1.377 7.559,8.922 7.707,9.511 0,0 0.05,0.041 0.144,0.118 z"
             style="fill:#edbc7e;fill-opacity:1;fill-rule:nonzero;stroke:none"
             id="path623" />
        </g>
        <g
           id="g625"
           transform="translate(389.0713,247.6055)">
          <path
             d="m 0,0 c -2.553,0.219 -5.11,0.34 -7.669,0.36 -0.372,0.003 -0.762,-0.001 -1.089,-0.222 -0.327,-0.222 -0.558,-0.737 -0.407,-1.16 0.087,-0.243 0.272,-0.402 0.455,-0.539 2.308,-1.738 5.149,-1.816 7.845,-1.845"
             style="fill:#edbc7e;fill-opacity:1;fill-rule:nonzero;stroke:none"
             id="path627" />
        </g>
        <g
           id="g629"
           transform="translate(419.5596,278.4888)">
          <path
             d="m 0,0 c 0,0 -3.016,-2.765 -11.191,-12.333 -5.998,-7.021 -17.235,-16.556 -17.235,-16.556 l 3.824,-4.772 c 0,0 25.772,13.43 33.806,28.281 C 4.581,-0.673 0,0 0,0"
             style="fill:#e3938e;fill-opacity:1;fill-rule:nonzero;stroke:none"
             id="path631" />
        </g>
      </g>
    </g>
  </g>
</svg>
