<?xml version="1.0" encoding="UTF-8" standalone="no"?>
<!-- Created with Inkscape (http://www.inkscape.org/) -->

<svg
   version="1.1"
   id="svg883"
   width="666.66663"
   height="496.81226"
   viewBox="0 0 666.66663 496.81226"
   sodipodi:docname="3173470.svg"
   inkscape:version="1.2.2 (732a01da63, 2022-12-09)"
   xmlns:inkscape="http://www.inkscape.org/namespaces/inkscape"
   xmlns:sodipodi="http://sodipodi.sourceforge.net/DTD/sodipodi-0.dtd"
   xmlns:xlink="http://www.w3.org/1999/xlink"
   xmlns="http://www.w3.org/2000/svg"
   xmlns:svg="http://www.w3.org/2000/svg">
  <defs
     id="defs887">
    <clipPath
       clipPathUnits="userSpaceOnUse"
       id="clipPath913">
      <path
         d="M 0,500 H 500 V 0 H 0 Z"
         id="path911" />
    </clipPath>
    <clipPath
       clipPathUnits="userSpaceOnUse"
       id="clipPath997">
      <path
         d="M 70.7874,426.934 H 112.106 V 329.342 H 70.7874 Z"
         id="path995" />
    </clipPath>
    <clipPath
       clipPathUnits="userSpaceOnUse"
       id="clipPath1019">
      <path
         d="m 193.156,426.934 h 23.811 v -97.592 h -23.811 z"
         id="path1017" />
    </clipPath>
    <clipPath
       clipPathUnits="userSpaceOnUse"
       id="clipPath1093">
      <path
         d="M 0,500 H 500 V 0 H 0 Z"
         id="path1091" />
    </clipPath>
    <clipPath
       clipPathUnits="userSpaceOnUse"
       id="clipPath1105">
      <path
         d="M 76.7906,394.599 H 416.151 V 120.823 H 76.7906 Z"
         id="path1103" />
    </clipPath>
    <clipPath
       clipPathUnits="userSpaceOnUse"
       id="clipPath1121">
      <path
         d="M 0,500 H 500 V 0 H 0 Z"
         id="path1119" />
    </clipPath>
    <clipPath
       clipPathUnits="userSpaceOnUse"
       id="clipPath1133">
      <path
         d="M 0,500 H 500 V 0 H 0 Z"
         id="path1131" />
    </clipPath>
    <clipPath
       clipPathUnits="userSpaceOnUse"
       id="clipPath1145">
      <path
         d="m 268.085,173.226 h 87.396 v -14.744 h -87.396 z"
         id="path1143" />
    </clipPath>
    <clipPath
       clipPathUnits="userSpaceOnUse"
       id="clipPath1169">
      <path
         d="m 265.609,179.303 h 92.346 v -9.289 h -92.346 z"
         id="path1167" />
    </clipPath>
    <clipPath
       clipPathUnits="userSpaceOnUse"
       id="clipPath1185">
      <path
         d="m 276.406,152.609 h 6.783 V 99.392 h -6.783 z"
         id="path1183" />
    </clipPath>
    <clipPath
       clipPathUnits="userSpaceOnUse"
       id="clipPath1201">
      <path
         d="m 340.376,152.609 h 6.782 V 99.392 h -6.782 z"
         id="path1199" />
    </clipPath>
    <clipPath
       clipPathUnits="userSpaceOnUse"
       id="clipPath1217">
      <path
         d="m 319.052,152.609 h 6.783 V 99.392 h -6.783 z"
         id="path1215" />
    </clipPath>
    <clipPath
       clipPathUnits="userSpaceOnUse"
       id="clipPath1233">
      <path
         d="m 297.729,152.609 h 6.783 V 99.392 h -6.783 z"
         id="path1231" />
    </clipPath>
    <clipPath
       clipPathUnits="userSpaceOnUse"
       id="clipPath1249">
      <path
         d="M 0,500 H 500 V 0 H 0 Z"
         id="path1247" />
    </clipPath>
    <clipPath
       clipPathUnits="userSpaceOnUse"
       id="clipPath1297">
      <path
         d="m 212.933,324.662 h 18.495 v -23.829 h -18.495 z"
         id="path1295" />
    </clipPath>
    <clipPath
       clipPathUnits="userSpaceOnUse"
       id="clipPath1337">
      <path
         d="m 177.883,111.561 h 11.739 v -11.367 h -11.739 z"
         id="path1335" />
    </clipPath>
    <clipPath
       clipPathUnits="userSpaceOnUse"
       id="clipPath1353">
      <path
         d="m 135.292,126.769 h 12.636 V 113.15 h -12.636 z"
         id="path1351" />
    </clipPath>
    <clipPath
       clipPathUnits="userSpaceOnUse"
       id="clipPath1373">
      <path
         d="m 173.909,329.764 h 47.292 v -58.078 h -47.292 z"
         id="path1371" />
    </clipPath>
    <clipPath
       clipPathUnits="userSpaceOnUse"
       id="clipPath1401">
      <path
         d="m 195.632,344.103 h 6.196 v -8.426 h -6.196 z"
         id="path1399" />
    </clipPath>
    <clipPath
       clipPathUnits="userSpaceOnUse"
       id="clipPath1437">
      <path
         d="m 189.893,260.823 h 10.991 v -55.396 h -10.991 z"
         id="path1435" />
    </clipPath>
    <clipPath
       clipPathUnits="userSpaceOnUse"
       id="clipPath1513">
      <path
         d="m 218.271,292.526 h 37.724 v -40.473 h -37.724 z"
         id="path1511" />
    </clipPath>
    <clipPath
       clipPathUnits="userSpaceOnUse"
       id="clipPath1545">
      <path
         d="m 218.16,261.914 h 19.192 v -8.111 H 218.16 Z"
         id="path1543" />
    </clipPath>
    <clipPath
       clipPathUnits="userSpaceOnUse"
       id="clipPath1577">
      <path
         d="m 163.328,329.164 h 19.489 v -23.61 h -19.489 z"
         id="path1575" />
    </clipPath>
    <clipPath
       clipPathUnits="userSpaceOnUse"
       id="clipPath1613">
      <path
         d="M 0,500 H 500 V 0 H 0 Z"
         id="path1611" />
    </clipPath>
    <clipPath
       clipPathUnits="userSpaceOnUse"
       id="clipPath1625">
      <path
         d="m 225.179,294.394 h 40.43 V 274.22 h -40.43 z"
         id="path1623" />
    </clipPath>
    <clipPath
       clipPathUnits="userSpaceOnUse"
       id="clipPath1645">
      <path
         d="m 225.079,294.394 h 40.53 V 274.7 h -40.53 z"
         id="path1643" />
    </clipPath>
    <clipPath
       clipPathUnits="userSpaceOnUse"
       id="clipPath1665">
      <path
         d="m 282.894,268.487 h 32.595 v -30.438 h -32.595 z"
         id="path1663" />
    </clipPath>
    <clipPath
       clipPathUnits="userSpaceOnUse"
       id="clipPath1685">
      <path
         d="m 282.894,268.487 h 32.595 v -30.438 h -32.595 z"
         id="path1683" />
    </clipPath>
    <clipPath
       clipPathUnits="userSpaceOnUse"
       id="clipPath1705">
      <path
         d="m 295.631,217.218 h 28.576 v -29.299 h -28.576 z"
         id="path1703" />
    </clipPath>
    <clipPath
       clipPathUnits="userSpaceOnUse"
       id="clipPath1725">
      <path
         d="m 295.631,217.218 h 28.576 v -29.581 h -28.576 z"
         id="path1723" />
    </clipPath>
    <clipPath
       clipPathUnits="userSpaceOnUse"
       id="clipPath3345">
      <path
         d="m 209.999,278.597 h 13.296 v -17.442 h -13.296 z"
         id="path3343" />
    </clipPath>
    <clipPath
       clipPathUnits="userSpaceOnUse"
       id="clipPath4585">
      <use
         x="0"
         y="0"
         xlink:href="#g4581"
         id="use4587" />
    </clipPath>
    <clipPath
       clipPathUnits="userSpaceOnUse"
       id="clipPath4832">
      <g
         inkscape:label="Clip"
         id="use4834">
        <g
           id="g4838"
           transform="matrix(0.63753228,0,0,0.67112367,355.67135,248.72436)"
           style="fill:#007cff;fill-opacity:1">
          <path
             d="m 0,0 -36.511,9.028 c -1.774,0.439 -2.856,2.232 -2.417,4.005 l 12.164,49.197 c 0.438,1.773 2.232,2.855 4.006,2.417 L 2.772,58.334 13.548,41.011 4.006,2.418 C 3.567,0.644 1.774,-0.438 0,0"
             style="fill:#007cff;fill-opacity:1;fill-rule:nonzero;stroke:none"
             id="path4836" />
        </g>
        <g
           id="g4842"
           transform="matrix(0.63753228,0,0,0.67112367,354.57588,260.1138)">
          <path
             d="m 0,0 c -0.032,-0.128 -5.655,1.152 -12.558,2.859 -6.906,1.707 -12.477,3.195 -12.445,3.324 0.032,0.128 5.654,-1.153 12.56,-2.861 C -5.54,1.615 0.032,0.128 0,0"
             style="fill:#ffffff;fill-opacity:1;fill-rule:nonzero;stroke:none"
             id="path4840" />
        </g>
        <g
           id="g4846"
           transform="matrix(0.63753228,0,0,0.67112367,355.71993,264.16611)">
          <path
             d="m 0,0 c -0.031,-0.128 -5.655,1.152 -12.558,2.859 -6.906,1.708 -12.476,3.196 -12.445,3.324 0.032,0.128 5.654,-1.153 12.56,-2.86 C -5.54,1.616 0.032,0.128 0,0"
             style="fill:#ffffff;fill-opacity:1;fill-rule:nonzero;stroke:none"
             id="path4844" />
        </g>
        <g
           id="g4850"
           transform="matrix(0.63753228,0,0,0.67112367,356.5623,268.29742)">
          <path
             d="m 0,0 c -0.032,-0.128 -5.612,1.142 -12.463,2.836 -6.854,1.694 -12.382,3.171 -12.35,3.299 0.031,0.128 5.611,-1.141 12.464,-2.836 C -5.498,1.605 0.032,0.128 0,0"
             style="fill:#ffffff;fill-opacity:1;fill-rule:nonzero;stroke:none"
             id="path4848" />
        </g>
        <g
           id="g4862"
           transform="matrix(0.63753228,0,0,0.67112367,221.95074,100.98038)">
          <g
             id="g4852" />
          <g
             id="g4860">
            <g
               clip-path="url(#clipPath3345)"
               opacity="0.399994"
               id="g4858">
              <g
                 transform="translate(212.549,278.5969)"
                 id="g4856">
                <path
                   d="m 0,0 -2.417,-9.777 c -0.598,-2.416 0.876,-4.86 3.293,-5.457 l 9.871,-2.208 z"
                   style="fill:#ffffff;fill-opacity:1;fill-rule:nonzero;stroke:none"
                   id="path4854" />
              </g>
            </g>
          </g>
        </g>
      </g>
    </clipPath>
  </defs>
  <sodipodi:namedview
     id="namedview885"
     pagecolor="#ffffff"
     bordercolor="#000000"
     borderopacity="0.25"
     inkscape:showpageshadow="2"
     inkscape:pageopacity="0.0"
     inkscape:pagecheckerboard="0"
     inkscape:deskcolor="#d1d1d1"
     showgrid="false"
     inkscape:zoom="0.58442374"
     inkscape:cx="253.24091"
     inkscape:cy="339.65082"
     inkscape:window-width="1366"
     inkscape:window-height="706"
     inkscape:window-x="-8"
     inkscape:window-y="-8"
     inkscape:window-maximized="1"
     inkscape:current-layer="g891">
    <inkscape:page
       x="0"
       y="0"
       id="page889"
       width="666.66663"
       height="496.81226" />
  </sodipodi:namedview>
  <g
     id="g891"
     inkscape:groupmode="layer"
     inkscape:label="Page 1"
     transform="matrix(1.3333333,0,0,-1.3333333,0,593.39652)">
    <path
       d="m 0,117.352 h 500 v 0.249 H 0 Z"
       style="fill:#ececec;fill-opacity:1;fill-rule:nonzero;stroke:none"
       id="path893" />
    <path
       d="m 52.459,107.828 h 33.122 v 0.25 H 52.459 Z"
       style="fill:#ececec;fill-opacity:1;fill-rule:nonzero;stroke:none"
       id="path895" />
    <path
       d="m 171.139,110.542 h 42.528 v 0.25 h -42.528 z"
       style="fill:#ececec;fill-opacity:1;fill-rule:nonzero;stroke:none"
       id="path897" />
    <path
       d="m 93.475,104.319 h 19.193 v 0.25 H 93.475 Z"
       style="fill:#ececec;fill-opacity:1;fill-rule:nonzero;stroke:none"
       id="path899" />
    <path
       d="m 434.667,100.222 h 15.234 v 0.25 h -15.234 z"
       style="fill:#ececec;fill-opacity:1;fill-rule:nonzero;stroke:none"
       id="path901" />
    <path
       d="m 391.472,100.222 h 34.292 v 0.25 h -34.292 z"
       style="fill:#ececec;fill-opacity:1;fill-rule:nonzero;stroke:none"
       id="path903" />
    <path
       d="m 308,107.417 h 23.833 v 0.249 H 308 Z"
       style="fill:#ececec;fill-opacity:1;fill-rule:nonzero;stroke:none"
       id="path905" />
    <g
       id="g907">
      <g
         id="g909"
         clip-path="url(#clipPath913)">
        <g
           id="g915"
           transform="translate(43.915,444.7974)">
          <path
             d="m 0,0 c -3.01,0 -5.458,-2.448 -5.458,-5.458 v -271.431 c 0,-3.01 2.448,-5.458 5.458,-5.458 h 193.099 c 3.008,0 5.457,2.448 5.457,5.458 V -5.458 c 0,3.01 -2.449,5.458 -5.457,5.458 z M 193.099,-282.597 H 0 c -3.147,0 -5.708,2.56 -5.708,5.708 V -5.458 c 0,3.147 2.561,5.708 5.708,5.708 h 193.099 c 3.146,0 5.707,-2.561 5.707,-5.708 v -271.431 c 0,-3.148 -2.561,-5.708 -5.707,-5.708"
             style="fill:#ececec;fill-opacity:1;fill-rule:nonzero;stroke:none"
             id="path917" />
        </g>
        <g
           id="g919"
           transform="translate(260.2119,444.7974)">
          <path
             d="m 0,0 c -3.009,0 -5.457,-2.448 -5.457,-5.458 v -271.431 c 0,-3.01 2.448,-5.458 5.457,-5.458 h 193.099 c 3.009,0 5.458,2.448 5.458,5.458 V -5.458 c 0,3.01 -2.449,5.458 -5.458,5.458 z M 193.099,-282.597 H 0 c -3.146,0 -5.707,2.56 -5.707,5.708 V -5.458 c 0,3.147 2.561,5.708 5.707,5.708 h 193.099 c 3.147,0 5.708,-2.561 5.708,-5.708 v -271.431 c 0,-3.148 -2.561,-5.708 -5.708,-5.708"
             style="fill:#ececec;fill-opacity:1;fill-rule:nonzero;stroke:none"
             id="path921" />
        </g>
        <path
           d="M 307.499,303.624 H 415.367 V 411.783 H 307.499 Z"
           style="fill:#f0f0f0;fill-opacity:1;fill-rule:nonzero;stroke:none"
           id="path923" />
        <path
           d="m 307.499,303.624 h -1.862 v 108.159 h 1.862 z"
           style="fill:#e1e1e1;fill-opacity:1;fill-rule:nonzero;stroke:none"
           id="path925" />
        <path
           d="m 317.022,310.455 h 88.822 v 94.497 h -88.822 z"
           style="fill:#fafafa;fill-opacity:1;fill-rule:nonzero;stroke:none"
           id="path927" />
        <g
           id="g929"
           transform="translate(352.0303,330.9966)">
          <path
             d="m 0,0 h 28.129 c 6.097,0 10.176,4.942 9.112,11.039 l -5.47,31.336 C 30.707,48.472 24.902,53.414 18.806,53.414 H -9.323 c -6.097,0 -10.176,-4.942 -9.112,-11.039 l 5.47,-31.336 C -11.901,4.942 -6.097,0 0,0"
             style="fill:#f0f0f0;fill-opacity:1;fill-rule:nonzero;stroke:none"
             id="path931" />
        </g>
        <path
           d="M 104.963,122.724 H 80.966 v 148.054 h 23.997 z"
           style="fill:#f0f0f0;fill-opacity:1;fill-rule:nonzero;stroke:none"
           id="path933" />
        <path
           d="M 210.277,122.724 H 83.422 v -5.107 h 126.855 z"
           style="fill:#f0f0f0;fill-opacity:1;fill-rule:nonzero;stroke:none"
           id="path935" />
        <path
           d="M 104.963,122.724 H 212.387 V 270.778 H 104.963 Z"
           style="fill:#f5f5f5;fill-opacity:1;fill-rule:nonzero;stroke:none"
           id="path937" />
        <path
           d="m 109.282,167.248 h 98.785 v 26.437 h -98.785 z"
           style="fill:#f0f0f0;fill-opacity:1;fill-rule:nonzero;stroke:none"
           id="path939" />
        <path
           d="m 109.282,132.646 h 98.785 v 26.437 h -98.785 z"
           style="fill:#f0f0f0;fill-opacity:1;fill-rule:nonzero;stroke:none"
           id="path941" />
        <g
           id="g943"
           transform="translate(196.375,191.6807)">
          <path
             d="m 0,0 h -75.401 c -0.648,0 -1.178,0.53 -1.178,1.178 v 1.269 c 0,0.648 0.53,1.178 1.178,1.178 H 0 c 0.648,0 1.179,-0.53 1.179,-1.178 V 1.178 C 1.179,0.53 0.648,0 0,0"
             style="fill:#f5f5f5;fill-opacity:1;fill-rule:nonzero;stroke:none"
             id="path945" />
        </g>
        <g
           id="g947"
           transform="translate(196.375,157.0791)">
          <path
             d="m 0,0 h -75.401 c -0.648,0 -1.178,0.53 -1.178,1.179 v 1.268 c 0,0.648 0.53,1.178 1.178,1.178 H 0 c 0.648,0 1.179,-0.53 1.179,-1.178 V 1.179 C 1.179,0.53 0.648,0 0,0"
             style="fill:#f5f5f5;fill-opacity:1;fill-rule:nonzero;stroke:none"
             id="path949" />
        </g>
        <path
           d="m 109.282,236.177 h 98.785 v 26.437 h -98.785 z"
           style="fill:#f0f0f0;fill-opacity:1;fill-rule:nonzero;stroke:none"
           id="path951" />
        <path
           d="m 109.282,201.849 h 98.785 v 26.437 h -98.785 z"
           style="fill:#f0f0f0;fill-opacity:1;fill-rule:nonzero;stroke:none"
           id="path953" />
        <g
           id="g955"
           transform="translate(196.375,260.6094)">
          <path
             d="m 0,0 h -75.401 c -0.648,0 -1.178,0.53 -1.178,1.178 v 1.269 c 0,0.648 0.53,1.178 1.178,1.178 H 0 c 0.648,0 1.179,-0.53 1.179,-1.178 V 1.178 C 1.179,0.53 0.648,0 0,0"
             style="fill:#f5f5f5;fill-opacity:1;fill-rule:nonzero;stroke:none"
             id="path957" />
        </g>
        <g
           id="g959"
           transform="translate(196.375,226.2817)">
          <path
             d="m 0,0 h -75.401 c -0.648,0 -1.178,0.53 -1.178,1.178 v 1.269 c 0,0.648 0.53,1.178 1.178,1.178 H 0 c 0.648,0 1.179,-0.53 1.179,-1.178 V 1.178 C 1.179,0.53 0.648,0 0,0"
             style="fill:#f5f5f5;fill-opacity:1;fill-rule:nonzero;stroke:none"
             id="path961" />
        </g>
        <path
           d="M 208.505,301.68 H 73.794 v 118.261 h 134.711 z"
           style="fill:#e7e7e7;fill-opacity:1;fill-rule:nonzero;stroke:none"
           id="path963" />
        <g
           id="g965"
           transform="translate(222.9414,424.5415)">
          <path
             d="m 0,0 h -157.868 c -0.738,0 -1.337,-0.599 -1.337,-1.337 0,-0.739 0.599,-1.338 1.337,-1.338 H 0 c 0.739,0 1.338,0.599 1.338,1.338 C 1.338,-0.599 0.739,0 0,0"
             style="fill:#e7e7e7;fill-opacity:1;fill-rule:nonzero;stroke:none"
             id="path967" />
        </g>
        <path
           d="M 214.222,301.68 H 76.465 v 118.261 h 137.757 z"
           style="fill:#f0f0f0;fill-opacity:1;fill-rule:nonzero;stroke:none"
           id="path969" />
        <g
           id="g971"
           transform="translate(208.5049,301.6797)">
          <path
             d="M 0,0 H -134.711 V -3.788 H 3.938 Z"
             style="fill:#e7e7e7;fill-opacity:1;fill-rule:nonzero;stroke:none"
             id="path973" />
        </g>
        <g
           id="g975"
           transform="translate(223.7441,301.6797)">
          <path
             d="m 0,0 h -137.757 l 3.939,-3.788 H 3.938 Z"
             style="fill:#f0f0f0;fill-opacity:1;fill-rule:nonzero;stroke:none"
             id="path977" />
        </g>
        <path
           d="M 84.467,411.938 H 206.219 V 309.682 H 84.467 Z"
           style="fill:#fafafa;fill-opacity:1;fill-rule:nonzero;stroke:none"
           id="path979" />
        <g
           id="g981"
           transform="translate(112.1055,309.6821)">
          <path
             d="M 0,0 46.97,102.256 H 69.142 L 22.173,0 Z"
             style="fill:#ffffff;fill-opacity:1;fill-rule:nonzero;stroke:none"
             id="path983" />
        </g>
        <g
           id="g985"
           transform="translate(139.041,309.6821)">
          <path
             d="m 0,0 46.969,102.256 h 8.644 L 8.644,0 Z"
             style="fill:#ffffff;fill-opacity:1;fill-rule:nonzero;stroke:none"
             id="path987" />
        </g>
        <path
           d="m 205.202,411.938 h 1.017 V 309.682 h -1.017 z"
           style="fill:#e7e7e7;fill-opacity:1;fill-rule:nonzero;stroke:none"
           id="path989" />
        <g
           id="g991">
          <g
             id="g993" />
          <g
             id="g1011">
            <g
               clip-path="url(#clipPath997)"
               opacity="0.399994"
               id="g1009">
              <path
                 d="M 84.561,329.342 H 70.788 v 97.592 h 13.773 z"
                 style="fill:#f0f0f0;fill-opacity:1;fill-rule:nonzero;stroke:none"
                 id="path999" />
              <path
                 d="m 89.926,329.342 h -10.73 v 97.592 h 10.73 z"
                 style="fill:#e7e7e7;fill-opacity:1;fill-rule:nonzero;stroke:none"
                 id="path1001" />
              <path
                 d="M 98.333,329.342 H 84.561 v 97.592 h 13.772 z"
                 style="fill:#f0f0f0;fill-opacity:1;fill-rule:nonzero;stroke:none"
                 id="path1003" />
              <path
                 d="m 103.698,329.342 h -10.73 v 97.592 h 10.73 z"
                 style="fill:#e7e7e7;fill-opacity:1;fill-rule:nonzero;stroke:none"
                 id="path1005" />
              <path
                 d="M 112.105,329.342 H 98.333 v 97.592 h 13.772 z"
                 style="fill:#f0f0f0;fill-opacity:1;fill-rule:nonzero;stroke:none"
                 id="path1007" />
            </g>
          </g>
        </g>
        <g
           id="g1013">
          <g
             id="g1015" />
          <g
             id="g1033">
            <g
               clip-path="url(#clipPath1019)"
               opacity="0.399994"
               id="g1031">
              <path
                 d="m 201.093,329.342 h -7.937 v 97.592 h 7.937 z"
                 style="fill:#f0f0f0;fill-opacity:1;fill-rule:nonzero;stroke:none"
                 id="path1021" />
              <path
                 d="m 204.185,329.342 h -6.184 v 97.592 h 6.184 z"
                 style="fill:#e7e7e7;fill-opacity:1;fill-rule:nonzero;stroke:none"
                 id="path1023" />
              <path
                 d="m 209.03,329.342 h -7.937 v 97.592 h 7.937 z"
                 style="fill:#f0f0f0;fill-opacity:1;fill-rule:nonzero;stroke:none"
                 id="path1025" />
              <path
                 d="m 212.122,329.342 h -6.184 v 97.592 h 6.184 z"
                 style="fill:#e7e7e7;fill-opacity:1;fill-rule:nonzero;stroke:none"
                 id="path1027" />
              <path
                 d="m 216.967,329.342 h -7.937 v 97.592 h 7.937 z"
                 style="fill:#f0f0f0;fill-opacity:1;fill-rule:nonzero;stroke:none"
                 id="path1029" />
            </g>
          </g>
        </g>
        <g
           id="g1035"
           transform="translate(356.8506,230.7861)">
          <path
             d="m 0,0 c -0.333,-4.044 2.676,-7.592 6.72,-7.924 4.044,-0.333 7.592,2.676 7.924,6.72 C 14.977,2.839 11.968,6.387 7.924,6.72 3.88,7.052 0.332,4.044 0,0"
             style="fill:#e1e1e1;fill-opacity:1;fill-rule:nonzero;stroke:none"
             id="path1037" />
        </g>
        <g
           id="g1039"
           transform="translate(368.8506,226.9429)">
          <path
             d="m 0,0 c -0.333,-4.043 2.676,-7.591 6.72,-7.924 4.044,-0.332 7.592,2.676 7.924,6.72 C 14.977,2.84 11.968,6.388 7.924,6.72 3.88,7.053 0.332,4.044 0,0"
             style="fill:#e1e1e1;fill-opacity:1;fill-rule:nonzero;stroke:none"
             id="path1041" />
        </g>
        <g
           id="g1043"
           transform="translate(381.7148,225.4526)">
          <path
             d="m 0,0 c -0.332,-4.044 2.677,-7.591 6.721,-7.924 4.043,-0.333 7.591,2.676 7.924,6.72 C 14.978,2.84 11.969,6.388 7.925,6.72 3.881,7.053 0.333,4.044 0,0"
             style="fill:#e1e1e1;fill-opacity:1;fill-rule:nonzero;stroke:none"
             id="path1045" />
        </g>
        <g
           id="g1047"
           transform="translate(343.2002,226.9429)">
          <path
             d="m 0,0 c -0.332,-4.043 2.677,-7.591 6.72,-7.924 4.044,-0.332 7.592,2.676 7.925,6.72 C 14.977,2.84 11.969,6.388 7.925,6.72 3.881,7.053 0.333,4.044 0,0"
             style="fill:#e1e1e1;fill-opacity:1;fill-rule:nonzero;stroke:none"
             id="path1049" />
        </g>
        <g
           id="g1051"
           transform="translate(392.3115,226.9429)">
          <path
             d="m 0,0 c -0.333,-4.043 2.676,-7.591 6.72,-7.924 4.044,-0.332 7.592,2.676 7.925,6.72 C 14.977,2.84 11.968,6.388 7.924,6.72 3.881,7.053 0.333,4.044 0,0"
             style="fill:#e1e1e1;fill-opacity:1;fill-rule:nonzero;stroke:none"
             id="path1053" />
        </g>
        <g
           id="g1055"
           transform="translate(333.334,231.332)">
          <path
             d="m 0,0 c -0.332,-4.044 2.677,-7.592 6.721,-7.924 4.043,-0.333 7.591,2.675 7.924,6.719 C 14.977,2.839 11.969,6.387 7.925,6.72 3.881,7.052 0.333,4.043 0,0"
             style="fill:#e1e1e1;fill-opacity:1;fill-rule:nonzero;stroke:none"
             id="path1057" />
        </g>
        <g
           id="g1059"
           transform="translate(322.9209,228.6108)">
          <path
             d="m 0,0 c -0.333,-4.044 2.676,-7.591 6.72,-7.924 4.044,-0.333 7.592,2.676 7.924,6.72 C 14.977,2.839 11.968,6.387 7.924,6.72 3.88,7.052 0.332,4.044 0,0"
             style="fill:#e1e1e1;fill-opacity:1;fill-rule:nonzero;stroke:none"
             id="path1061" />
        </g>
        <g
           id="g1063"
           transform="translate(314.5254,226.6333)">
          <path
             d="M 0,0 C 0,0 1.261,-30.078 49.584,-30.078 97.906,-30.078 99.167,0 99.167,0 Z"
             style="fill:#f0f0f0;fill-opacity:1;fill-rule:nonzero;stroke:none"
             id="path1065" />
        </g>
        <path
           d="m 441.254,117.603 h -9.186 v 78.953 h 9.186 z"
           style="fill:#e7e7e7;fill-opacity:1;fill-rule:nonzero;stroke:none"
           id="path1067" />
        <path
           d="m 443.713,117.603 h -5.411 v 78.953 h 5.411 z"
           style="fill:#f0f0f0;fill-opacity:1;fill-rule:nonzero;stroke:none"
           id="path1069" />
        <path
           d="m 402.16,117.603 h -9.186 v 78.953 h 9.186 z"
           style="fill:#e7e7e7;fill-opacity:1;fill-rule:nonzero;stroke:none"
           id="path1071" />
        <path
           d="m 403.883,117.603 h -5.411 v 78.953 h 5.411 z"
           style="fill:#f0f0f0;fill-opacity:1;fill-rule:nonzero;stroke:none"
           id="path1073" />
        <path
           d="m 314.932,186.983 h 130.457 v 9.573 H 314.932 Z"
           style="fill:#f0f0f0;fill-opacity:1;fill-rule:nonzero;stroke:none"
           id="path1075" />
        <path
           d="m 275.056,117.603 h -9.187 v 78.953 h 9.187 z"
           style="fill:#e7e7e7;fill-opacity:1;fill-rule:nonzero;stroke:none"
           id="path1077" />
        <path
           d="m 276.777,117.603 h -5.41 v 78.953 h 5.41 z"
           style="fill:#f0f0f0;fill-opacity:1;fill-rule:nonzero;stroke:none"
           id="path1079" />
        <path
           d="m 264.228,186.983 h 46.773 v 9.573 h -46.773 z"
           style="fill:#e7e7e7;fill-opacity:1;fill-rule:nonzero;stroke:none"
           id="path1081" />
        <path
           d="m 314.149,117.603 h -9.186 v 78.953 h 9.186 z"
           style="fill:#e7e7e7;fill-opacity:1;fill-rule:nonzero;stroke:none"
           id="path1083" />
        <path
           d="m 316.607,117.603 h -5.41 v 78.953 h 5.41 z"
           style="fill:#f0f0f0;fill-opacity:1;fill-rule:nonzero;stroke:none"
           id="path1085" />
      </g>
    </g>
    <g
       id="g1115">
      <g
         id="g1117"
         clip-path="url(#clipPath1121)">
        <g
           id="g1123"
           transform="translate(443.8896,83.7622)">
          <path
             d="m 0,0 c 0,-6.254 -86.808,-11.324 -193.89,-11.324 -107.082,0 -193.888,5.07 -193.888,11.324 0,6.253 86.806,11.323 193.888,11.323 C -86.808,11.323 0,6.253 0,0"
             style="fill:#f5f5f5;fill-opacity:1;fill-rule:nonzero;stroke:none"
             id="path1125" />
        </g>
      </g>
    </g>
    <g
       id="g1127">
      <g
         id="g1129"
         clip-path="url(#clipPath1133)">
        <g
           id="g1135"
           transform="translate(355.4775,93.6904)">
          <path
             d="m 0,0 c 0,-4.128 -2.975,-7.654 -7.048,-8.331 -7.793,-1.294 -21.296,-3.073 -36.647,-3.073 -15.352,0 -28.855,1.779 -36.648,3.073 -4.073,0.677 -7.048,4.203 -7.048,8.331 V 80.968 H 0 Z"
             style="fill:#007cff;fill-opacity:1;fill-rule:nonzero;stroke:none"
             id="path1137" />
        </g>
        <g
           id="g1139">
          <g
             id="g1141" />
          <g
             id="g1153">
            <g
               clip-path="url(#clipPath1145)"
               opacity="0.300003"
               id="g1151">
              <g
                 transform="translate(268.085,173.2261)"
                 id="g1149">
                <path
                   d="m 0,0 v -11.363 c 5.259,-1.949 22.526,-3.381 43.692,-3.381 21.189,0 38.468,1.432 43.704,3.381 V 0 Z"
                   style="fill:#000000;fill-opacity:1;fill-rule:nonzero;stroke:none"
                   id="path1147" />
              </g>
            </g>
          </g>
        </g>
        <g
           id="g1155"
           transform="translate(357.123,164.5571)">
          <path
             d="m 0,0 c 0,-2.565 -19.84,-4.645 -45.341,-4.645 -25.501,0 -45.342,2.08 -45.342,4.645 l -0.831,10.101 H 0.832 Z"
             style="fill:#007cff;fill-opacity:1;fill-rule:nonzero;stroke:none"
             id="path1157" />
        </g>
        <g
           id="g1159"
           transform="translate(357.9551,174.6582)">
          <path
             d="m 0,0 c 0,2.565 -20.672,4.645 -46.173,4.645 -25.501,0 -46.173,-2.08 -46.173,-4.645 0,-2.565 20.672,-4.644 46.173,-4.644 C -20.672,-4.644 0,-2.565 0,0"
             style="fill:#007cff;fill-opacity:1;fill-rule:nonzero;stroke:none"
             id="path1161" />
        </g>
        <g
           id="g1163">
          <g
             id="g1165" />
          <g
             id="g1177">
            <g
               clip-path="url(#clipPath1169)"
               opacity="0.300003"
               id="g1175">
              <g
                 transform="translate(357.9551,174.6582)"
                 id="g1173">
                <path
                   d="m 0,0 c 0,2.565 -20.672,4.645 -46.173,4.645 -25.501,0 -46.173,-2.08 -46.173,-4.645 0,-2.565 20.672,-4.644 46.173,-4.644 C -20.672,-4.644 0,-2.565 0,0"
                   style="fill:#000000;fill-opacity:1;fill-rule:nonzero;stroke:none"
                   id="path1171" />
              </g>
            </g>
          </g>
        </g>
        <g
           id="g1179">
          <g
             id="g1181" />
          <g
             id="g1193">
            <g
               clip-path="url(#clipPath1185)"
               opacity="0.199997"
               id="g1191">
              <g
                 transform="translate(279.7979,99.3921)"
                 id="g1189">
                <path
                   d="m 0,0 v 0 c -1.865,0 -3.392,1.526 -3.392,3.391 v 46.434 c 0,1.865 1.527,3.391 3.392,3.391 1.865,0 3.391,-1.526 3.391,-3.391 V 3.391 C 3.391,1.526 1.865,0 0,0"
                   style="fill:#000000;fill-opacity:1;fill-rule:nonzero;stroke:none"
                   id="path1187" />
              </g>
            </g>
          </g>
        </g>
        <g
           id="g1195">
          <g
             id="g1197" />
          <g
             id="g1209">
            <g
               clip-path="url(#clipPath1201)"
               opacity="0.199997"
               id="g1207">
              <g
                 transform="translate(343.7666,99.3921)"
                 id="g1205">
                <path
                   d="m 0,0 v 0 c -1.865,0 -3.391,1.526 -3.391,3.391 v 46.434 c 0,1.865 1.526,3.391 3.391,3.391 1.865,0 3.392,-1.526 3.392,-3.391 V 3.391 C 3.392,1.526 1.865,0 0,0"
                   style="fill:#000000;fill-opacity:1;fill-rule:nonzero;stroke:none"
                   id="path1203" />
              </g>
            </g>
          </g>
        </g>
        <g
           id="g1211">
          <g
             id="g1213" />
          <g
             id="g1225">
            <g
               clip-path="url(#clipPath1217)"
               opacity="0.199997"
               id="g1223">
              <g
                 transform="translate(322.4434,99.3921)"
                 id="g1221">
                <path
                   d="m 0,0 v 0 c -1.865,0 -3.391,1.526 -3.391,3.391 v 46.434 c 0,1.865 1.526,3.391 3.391,3.391 1.865,0 3.392,-1.526 3.392,-3.391 V 3.391 C 3.392,1.526 1.865,0 0,0"
                   style="fill:#000000;fill-opacity:1;fill-rule:nonzero;stroke:none"
                   id="path1219" />
              </g>
            </g>
          </g>
        </g>
        <g
           id="g1227">
          <g
             id="g1229" />
          <g
             id="g1241">
            <g
               clip-path="url(#clipPath1233)"
               opacity="0.199997"
               id="g1239">
              <g
                 transform="translate(301.1201,99.3921)"
                 id="g1237">
                <path
                   d="m 0,0 v 0 c -1.864,0 -3.391,1.526 -3.391,3.391 v 46.434 c 0,1.865 1.527,3.391 3.391,3.391 1.865,0 3.392,-1.526 3.392,-3.391 V 3.391 C 3.392,1.526 1.865,0 0,0"
                   style="fill:#000000;fill-opacity:1;fill-rule:nonzero;stroke:none"
                   id="path1235" />
              </g>
            </g>
          </g>
        </g>
      </g>
    </g>
    <g
       id="g1245"
       clip-path="url(#clipPath1249)">
      <g
         id="g1251"
         transform="translate(192.877,360.8437)">
        <path
           d="m 0,0 c 0,-2.559 -2.074,-4.632 -4.633,-4.632 -2.558,0 -4.633,2.073 -4.633,4.632 0,2.559 2.075,4.633 4.633,4.633 C -2.074,4.633 0,2.559 0,0"
           style="fill:#1a2e35;fill-opacity:1;fill-rule:nonzero;stroke:none"
           id="path1253" />
      </g>
      <g
         id="g1255"
         transform="translate(184.5127,360.167)">
        <path
           d="M 0,0 C -0.089,0 -0.174,0.047 -0.22,0.13 -1.507,2.495 -0.632,5.466 1.732,6.754 2.877,7.378 4.197,7.519 5.448,7.149 6.699,6.781 7.731,5.947 8.355,4.802 8.422,4.681 8.377,4.529 8.256,4.462 8.135,4.397 7.982,4.442 7.917,4.562 7.356,5.591 6.43,6.339 5.307,6.67 4.184,7.001 2.999,6.875 1.972,6.314 -0.15,5.158 -0.937,2.492 0.22,0.37 0.285,0.249 0.24,0.097 0.119,0.03 0.081,0.01 0.04,0 0,0"
           style="fill:#1a2e35;fill-opacity:1;fill-rule:nonzero;stroke:none"
           id="path1257" />
      </g>
      <g
         id="g1259"
         transform="translate(180.0166,339.6396)">
        <path
           d="m 0,0 c -1.041,0 -2.052,0.333 -2.903,0.966 -1.046,0.779 -1.727,1.918 -1.916,3.209 -0.19,1.29 0.134,2.577 0.913,3.623 0.779,1.047 1.918,1.727 3.208,1.917 C -0.557,9.73 -0.435,9.64 -0.414,9.503 -0.394,9.367 -0.488,9.24 -0.625,9.22 -1.783,9.05 -2.807,8.439 -3.505,7.5 -4.203,6.561 -4.495,5.405 -4.325,4.247 -4.155,3.089 -3.544,2.066 -2.604,1.367 -1.665,0.668 -0.512,0.379 0.647,0.548 0.786,0.567 0.911,0.473 0.932,0.336 0.951,0.2 0.856,0.073 0.721,0.053 0.479,0.018 0.239,0 0,0"
           style="fill:#1a2e35;fill-opacity:1;fill-rule:nonzero;stroke:none"
           id="path1261" />
      </g>
      <g
         id="g1263"
         transform="translate(205.2129,332.0815)">
        <path
           d="m 0,0 c -0.933,0 -1.847,0.269 -2.647,0.788 -0.117,0.075 -0.15,0.23 -0.074,0.346 0.075,0.116 0.23,0.148 0.345,0.074 C -1.394,0.57 -0.222,0.354 0.923,0.598 2.068,0.842 3.049,1.517 3.687,2.499 5.002,4.526 4.423,7.246 2.396,8.561 2.279,8.636 2.247,8.791 2.322,8.907 2.396,9.022 2.552,9.055 2.668,8.98 4.926,7.515 5.571,4.485 4.105,2.227 3.396,1.133 2.303,0.38 1.027,0.109 0.686,0.036 0.342,0 0,0"
           style="fill:#1a2e35;fill-opacity:1;fill-rule:nonzero;stroke:none"
           id="path1265" />
      </g>
      <g
         id="g1267"
         transform="translate(192.2012,352.9292)">
        <path
           d="m 0,0 c 0,-3.622 -2.937,-6.559 -6.559,-6.559 -3.623,0 -6.559,2.937 -6.559,6.559 0,3.623 2.936,6.559 6.559,6.559 C -2.937,6.559 0,3.623 0,0"
           style="fill:#1a2e35;fill-opacity:1;fill-rule:nonzero;stroke:none"
           id="path1269" />
      </g>
      <g
         id="g1271"
         transform="translate(194.3437,344.103)">
        <path
           d="m 0,0 c 0,-4.806 -3.896,-8.701 -8.701,-8.701 -4.806,0 -8.702,3.895 -8.702,8.701 0,4.806 3.896,8.701 8.702,8.701 C -3.896,8.701 0,4.806 0,0"
           style="fill:#1a2e35;fill-opacity:1;fill-rule:nonzero;stroke:none"
           id="path1273" />
      </g>
      <g
         id="g1275"
         transform="translate(196.1855,333.0391)">
        <path
           d="m 0,0 c 0,-5.314 -4.308,-9.623 -9.622,-9.623 -5.315,0 -9.623,4.309 -9.623,9.623 0,5.314 4.308,9.623 9.623,9.623 C -4.308,9.623 0,5.314 0,0"
           style="fill:#1a2e35;fill-opacity:1;fill-rule:nonzero;stroke:none"
           id="path1277" />
      </g>
      <g
         id="g1279"
         transform="translate(205.8076,332.3726)">
        <path
           d="m 0,0 c 0,-5.314 -4.308,-9.623 -9.622,-9.623 -5.315,0 -9.622,4.309 -9.622,9.623 0,5.314 4.307,9.623 9.622,9.623 C -4.308,9.623 0,5.314 0,0"
           style="fill:#1a2e35;fill-opacity:1;fill-rule:nonzero;stroke:none"
           id="path1281" />
      </g>
      <g
         id="g1283"
         transform="translate(228.0908,312.5356)">
        <path
           d="m 0,0 c 0.003,-0.773 0.039,-1.761 0.065,-2.666 0.031,-0.924 0.079,-1.856 0.136,-2.789 0.132,-1.865 0.26,-3.739 0.454,-5.611 0.361,-3.746 0.871,-7.487 1.518,-11.206 0.166,-0.929 0.313,-1.863 0.505,-2.787 l 0.438,-2.265 c 0.113,-0.366 0.038,-0.29 -0.134,-0.277 -0.169,-0.006 0.04,-0.185 0.587,-0.184 1.095,-0.007 2.793,0.543 4.377,1.24 0.807,0.355 1.622,0.753 2.444,1.167 0.805,0.415 1.645,0.902 2.398,1.32 l 2.925,-3.364 c -0.734,-0.848 -1.444,-1.549 -2.222,-2.276 -0.764,-0.722 -1.575,-1.406 -2.446,-2.05 C 10.18,-32.403 9.246,-33 8.217,-33.555 7.184,-34.11 6.042,-34.591 4.64,-34.897 3.936,-35.04 3.161,-35.145 2.287,-35.094 c -0.869,0.054 -1.84,0.245 -2.779,0.695 -0.938,0.437 -1.797,1.109 -2.427,1.846 -0.642,0.735 -1.083,1.513 -1.404,2.246 -0.316,0.702 -0.558,1.542 -0.656,1.932 l -0.396,1.459 c -0.271,0.973 -0.511,1.952 -0.744,2.934 -0.926,3.928 -1.669,7.901 -2.165,11.916 -0.247,2.007 -0.448,4.024 -0.568,6.054 -0.06,1.015 -0.109,2.033 -0.141,3.059 -0.039,1.047 -0.033,2.012 -0.003,3.189 z"
           style="fill:#ffb670;fill-opacity:1;fill-rule:nonzero;stroke:none"
           id="path1285" />
      </g>
      <g
         id="g1287"
         transform="translate(223.2383,323.3174)">
        <path
           d="m 0,0 c 8.531,-6.531 8.188,-18.837 8.188,-18.837 l -15.257,-3.647 c 0,0 -4.682,12.373 -2.784,16.903 C -7.87,-0.853 -4.801,3.676 0,0"
           style="fill:#007cff;fill-opacity:1;fill-rule:nonzero;stroke:none"
           id="path1289" />
      </g>
      <g
         id="g1291">
        <g
           id="g1293" />
        <g
           id="g1305">
          <g
             clip-path="url(#clipPath1297)"
             opacity="0.699997"
             id="g1303">
            <g
               transform="translate(223.2383,323.3174)"
               id="g1301">
              <path
                 d="m 0,0 c 8.531,-6.531 8.188,-18.837 8.188,-18.837 l -15.257,-3.647 c 0,0 -4.682,12.373 -2.784,16.903 C -7.87,-0.853 -4.801,3.676 0,0"
                 style="fill:#ffffff;fill-opacity:1;fill-rule:nonzero;stroke:none"
                 id="path1299" />
            </g>
          </g>
        </g>
      </g>
      <g
         id="g1307"
         transform="translate(240.2646,287.3447)">
        <path
           d="M 0,0 2.525,4.238 8.847,-2.52 c 0,0 -4.535,-2.9 -9.233,-0.832 z"
           style="fill:#ffb670;fill-opacity:1;fill-rule:nonzero;stroke:none"
           id="path1309" />
      </g>
      <g
         id="g1311"
         transform="translate(245.9014,293.6113)">
        <path
           d="M 0,0 8.112,-4.777 3.21,-8.787 -3.111,-2.029 Z"
           style="fill:#ffb670;fill-opacity:1;fill-rule:nonzero;stroke:none"
           id="path1313" />
      </g>
      <g
         id="g1315"
         transform="translate(175.4873,91.1416)">
        <path
           d="m 0,0 8.726,-0.838 5.412,20.423 -8.726,0.839 z"
           style="fill:#ffb670;fill-opacity:1;fill-rule:nonzero;stroke:none"
           id="path1317" />
      </g>
      <g
         id="g1319"
         transform="translate(130.7881,108.314)">
        <path
           d="m 0,0 7.83,-4.104 9.311,18.458 -7.83,4.105 z"
           style="fill:#ffb670;fill-opacity:1;fill-rule:nonzero;stroke:none"
           id="path1321" />
      </g>
      <g
         id="g1323"
         transform="translate(140.708,107.8032)">
        <path
           d="m 0,0 -7.003,7.11 c -0.255,0.259 -0.642,0.292 -0.93,0.079 l -6.423,-4.731 c -0.666,-0.49 -0.724,-1.536 -0.126,-2.123 2.484,-2.437 3.806,-3.488 6.886,-6.614 1.895,-1.924 5.803,-6.458 8.419,-9.114 2.56,-2.598 5.383,-0.211 4.531,1.13 C 1.536,-8.253 0.896,-4.494 0.653,-1.441 0.609,-0.891 0.373,-0.378 0,0"
           style="fill:#1a2e35;fill-opacity:1;fill-rule:nonzero;stroke:none"
           id="path1325" />
      </g>
      <g
         id="g1327"
         transform="translate(185.5732,92.9546)">
        <path
           d="m 0,0 h -10.539 c -0.383,0 -0.73,-0.267 -0.832,-0.641 l -2.291,-8.338 c -0.238,-0.864 0.398,-1.66 1.285,-1.667 3.714,-0.034 5.475,-0.018 10.108,-0.018 h 14.165 c 3.851,0 4.657,3.893 3.063,4.246 C 7.814,-4.837 3.696,-2.657 1.492,-0.577 1.095,-0.202 0.561,0 0,0"
           style="fill:#1a2e35;fill-opacity:1;fill-rule:nonzero;stroke:none"
           id="path1329" />
      </g>
      <g
         id="g1331">
        <g
           id="g1333" />
        <g
           id="g1345">
          <g
             clip-path="url(#clipPath1337)"
             opacity="0.199997"
             id="g1343">
            <g
               transform="translate(189.6221,110.7217)"
               id="g1341">
              <path
                 d="m 0,0 -2.788,-10.528 h -8.951 l 3.01,11.367 z"
                 style="fill:#000000;fill-opacity:1;fill-rule:nonzero;stroke:none"
                 id="path1339" />
            </g>
          </g>
        </g>
      </g>
      <g
         id="g1347">
        <g
           id="g1349" />
        <g
           id="g1361">
          <g
             clip-path="url(#clipPath1353)"
             opacity="0.199997"
             id="g1359">
            <g
               transform="translate(140.0947,126.769)"
               id="g1357">
              <path
                 d="M 0,0 7.833,-4.106 3.03,-13.619 -4.803,-9.513 Z"
                 style="fill:#000000;fill-opacity:1;fill-rule:nonzero;stroke:none"
                 id="path1355" />
            </g>
          </g>
        </g>
      </g>
      <g
         id="g1363"
         transform="translate(220.6631,324.583)">
        <path
           d="m 0,0 c 0,0 3.856,-1.697 -9.081,-52.896 -14.263,1.233 -29.003,2.508 -35.943,3.108 1.868,14.577 2.665,23.596 -1.73,54.223 0,0 7.673,0.987 15.437,0.691 6.074,-0.232 11.046,-0.467 16.322,-1.413 C -8.041,2.467 0,0 0,0"
           style="fill:#007cff;fill-opacity:1;fill-rule:nonzero;stroke:none"
           id="path1365" />
      </g>
      <g
         id="g1367">
        <g
           id="g1369" />
        <g
           id="g1381">
          <g
             clip-path="url(#clipPath1373)"
             opacity="0.699997"
             id="g1379">
            <g
               transform="translate(220.6631,324.583)"
               id="g1377">
              <path
                 d="m 0,0 c 0,0 3.856,-1.697 -9.081,-52.896 -14.263,1.233 -29.003,2.508 -35.943,3.108 1.868,14.577 2.665,23.596 -1.73,54.223 0,0 7.673,0.987 15.437,0.691 6.074,-0.232 11.046,-0.467 16.322,-1.413 C -8.041,2.467 0,0 0,0"
                 style="fill:#ffffff;fill-opacity:1;fill-rule:nonzero;stroke:none"
                 id="path1375" />
            </g>
          </g>
        </g>
      </g>
      <g
         id="g1383"
         transform="translate(189.3457,329.96)">
        <path
           d="M 0,0 C 0,0 -2.038,-0.036 -4.447,-0.036 -5.893,-2.27 0.225,-8.78 8.005,-15.176 9.88,-9.347 12.84,-9.374 12.84,-9.374 Z"
           style="fill:#ffffff;fill-opacity:1;fill-rule:nonzero;stroke:none"
           id="path1385" />
      </g>
      <g
         id="g1387"
         transform="translate(205.6631,328.4263)">
        <path
           d="m 0,0 c 0,0 0.908,-0.129 3.084,-0.625 1.445,-2.234 2.257,-7.81 -2.01,-12.672 -1.665,6.001 -4.552,5.457 -4.552,5.457 z"
           style="fill:#ffffff;fill-opacity:1;fill-rule:nonzero;stroke:none"
           id="path1389" />
      </g>
      <g
         id="g1391"
         transform="translate(192.5527,347.9468)">
        <path
           d="m 0,0 c 0.575,-5.34 0.771,-15.052 -3.207,-18.238 0,0 4.249,-4.336 12.84,-9.122 6.249,4.318 3.482,7.71 3.482,7.71 -5.735,1.905 -5.209,6.236 -3.836,10.229 z"
           style="fill:#ffb670;fill-opacity:1;fill-rule:nonzero;stroke:none"
           id="path1393" />
      </g>
      <g
         id="g1395">
        <g
           id="g1397" />
        <g
           id="g1409">
          <g
             clip-path="url(#clipPath1401)"
             opacity="0.199997"
             id="g1407">
            <g
               transform="translate(196.3359,344.103)"
               id="g1405">
              <path
                 d="M 0,0 5.492,-5.573 C 5.164,-6.517 4.889,-7.48 4.738,-8.426 2.529,-7.909 -0.669,-5.614 -0.704,-3.25 -0.722,-2.072 -0.238,-0.528 0,0"
                 style="fill:#000000;fill-opacity:1;fill-rule:nonzero;stroke:none"
                 id="path1403" />
            </g>
          </g>
        </g>
      </g>
      <g
         id="g1411"
         transform="translate(213.1709,365.375)">
        <path
           d="M 0,0 C 3.675,-3.264 4.758,-11.208 1.258,-16.597 -0.475,-8.008 0,0 0,0"
           style="fill:#1a2e35;fill-opacity:1;fill-rule:nonzero;stroke:none"
           id="path1413" />
      </g>
      <g
         id="g1415"
         transform="translate(191.4297,359.1582)">
        <path
           d="m 0,0 c -0.637,-8.793 -1.094,-12.501 2.709,-17.57 5.722,-7.623 16.661,-6.482 19.912,1.944 2.926,7.584 3.475,20.69 -4.596,25.308 C 10.074,14.231 0.636,8.793 0,0"
           style="fill:#ffb670;fill-opacity:1;fill-rule:nonzero;stroke:none"
           id="path1417" />
      </g>
      <g
         id="g1419"
         transform="translate(190.2617,352.0835)">
        <path
           d="M 0,0 C 6.5,0.25 10.103,8.75 8.468,12.333 15.834,8.5 27.002,5.473 25.76,10.417 24.084,17.083 16.017,21.972 6.084,18.4 0.334,15.917 -4.583,10.417 0,0"
           style="fill:#1a2e35;fill-opacity:1;fill-rule:nonzero;stroke:none"
           id="path1421" />
      </g>
      <g
         id="g1423"
         transform="translate(188.2842,352.0942)">
        <path
           d="M 0,0 C 0.271,-1.807 1.353,-3.321 2.575,-4.193 4.413,-5.506 6.1,-4.047 6.23,-1.91 6.348,0.013 5.533,3.014 3.379,3.479 1.257,3.938 -0.312,2.067 0,0"
           style="fill:#ffb670;fill-opacity:1;fill-rule:nonzero;stroke:none"
           id="path1425" />
      </g>
      <g
         id="g1427"
         transform="translate(211.582,271.6865)">
        <path
           d="m 0,0 c 0,0 8.131,-53.049 3.597,-87.131 -3.426,-25.75 -25.561,-81.31 -25.561,-81.31 l -14.37,0.394 c 0,0 14.844,53.851 17.912,75.028 5.25,36.227 -7.898,95.295 -7.898,95.295 z"
           style="fill:#1a2e35;fill-opacity:1;fill-rule:nonzero;stroke:none"
           id="path1429" />
      </g>
      <g
         id="g1431">
        <g
           id="g1433" />
        <g
           id="g1445">
          <g
             clip-path="url(#clipPath1437)"
             opacity="0.199997"
             id="g1443">
            <g
               transform="translate(197.5596,260.8237)"
               id="g1441">
              <path
                 d="m 0,0 -7.666,-12.091 c 1.95,-12.536 3.891,-28.217 4.386,-43.306 C 7.5,-36.097 2.396,-10.218 0,0"
                 style="fill:#000000;fill-opacity:1;fill-rule:nonzero;stroke:none"
                 id="path1439" />
            </g>
          </g>
        </g>
      </g>
      <g
         id="g1447"
         transform="translate(191.8594,102.4512)">
        <path
           d="m 0,0 -18.058,0.483 1.096,5.819 18.663,-0.11 z"
           style="fill:#007cff;fill-opacity:1;fill-rule:nonzero;stroke:none"
           id="path1449" />
      </g>
      <g
         id="g1451"
         transform="translate(203.7236,272.2588)">
        <path
           d="m 0,0 c 0,0 -5.985,-58.743 -19.713,-90.694 -11.088,-25.807 -37.526,-67.071 -37.526,-67.071 l -10.563,6.177 c 0,0 17.036,45.892 25.386,63.089 20.475,42.169 1.429,75.989 14.331,91.035 z"
           style="fill:#1a2e35;fill-opacity:1;fill-rule:nonzero;stroke:none"
           id="path1453" />
      </g>
      <g
         id="g1455"
         transform="translate(147.6299,113.5933)">
        <path
           d="m 0,0 -13.467,7.384 2.186,5.76 14.354,-8.093 z"
           style="fill:#007cff;fill-opacity:1;fill-rule:nonzero;stroke:none"
           id="path1457" />
      </g>
      <g
         id="g1459"
         transform="translate(175.2822,276.9507)">
        <path
           d="m 0,0 -1.898,-3.077 c -0.148,-0.238 0.126,-0.519 0.542,-0.555 l 37.694,-3.26 c 0.324,-0.028 0.606,0.107 0.644,0.309 l 0.603,3.19 c 0.042,0.221 -0.223,0.434 -0.577,0.464 L 0.609,0.22 C 0.342,0.243 0.096,0.154 0,0"
           style="fill:#007cff;fill-opacity:1;fill-rule:nonzero;stroke:none"
           id="path1461" />
      </g>
      <g
         id="g1463"
         transform="translate(179.8193,272.458)">
        <path
           d="m 0,0 -0.976,0.084 c -0.193,0.017 -0.333,0.13 -0.308,0.251 l 0.818,4.141 c 0.025,0.121 0.202,0.207 0.397,0.19 L 0.905,4.582 C 1.1,4.564 1.239,4.452 1.215,4.331 L 0.396,0.19 C 0.372,0.069 0.194,-0.017 0,0"
           style="fill:#1a2e35;fill-opacity:1;fill-rule:nonzero;stroke:none"
           id="path1465" />
      </g>
      <g
         id="g1467"
         transform="translate(208.8506,269.9473)">
        <path
           d="m 0,0 -0.975,0.084 c -0.194,0.017 -0.333,0.13 -0.309,0.251 l 0.818,4.141 c 0.025,0.121 0.203,0.206 0.397,0.19 L 0.906,4.581 C 1.101,4.564 1.239,4.452 1.216,4.331 L 0.396,0.19 C 0.373,0.069 0.194,-0.017 0,0"
           style="fill:#1a2e35;fill-opacity:1;fill-rule:nonzero;stroke:none"
           id="path1469" />
      </g>
      <g
         id="g1471"
         transform="translate(194.335,271.2026)">
        <path
           d="m 0,0 -0.975,0.084 c -0.194,0.017 -0.334,0.13 -0.309,0.251 l 0.818,4.141 c 0.025,0.121 0.203,0.207 0.397,0.19 L 0.905,4.582 C 1.1,4.564 1.239,4.452 1.215,4.331 L 0.396,0.19 C 0.372,0.069 0.194,-0.017 0,0"
           style="fill:#1a2e35;fill-opacity:1;fill-rule:nonzero;stroke:none"
           id="path1473" />
      </g>
      <g
         id="g1475"
         transform="translate(205.1953,354.7876)">
        <path
           d="M 0,0 C -0.096,-0.71 0.203,-1.336 0.668,-1.398 1.132,-1.461 1.586,-0.936 1.681,-0.226 1.776,0.484 1.478,1.111 1.014,1.173 0.549,1.235 0.096,0.71 0,0"
           style="fill:#1a2e35;fill-opacity:1;fill-rule:nonzero;stroke:none"
           id="path1477" />
      </g>
      <g
         id="g1479"
         transform="translate(213.2217,353.709)">
        <path
           d="M 0,0 C -0.095,-0.71 0.204,-1.336 0.668,-1.398 1.132,-1.461 1.586,-0.936 1.682,-0.226 1.776,0.484 1.478,1.111 1.014,1.173 0.55,1.235 0.096,0.71 0,0"
           style="fill:#1a2e35;fill-opacity:1;fill-rule:nonzero;stroke:none"
           id="path1481" />
      </g>
      <g
         id="g1483"
         transform="translate(214.0254,354.8701)">
        <path
           d="M 0,0 1.771,0.263 C 1.771,0.263 0.717,-0.952 0,0"
           style="fill:#1a2e35;fill-opacity:1;fill-rule:nonzero;stroke:none"
           id="path1485" />
      </g>
      <g
         id="g1487"
         transform="translate(210.0713,352.9292)">
        <path
           d="M 0,0 C 0,0 0.794,-3.219 1.923,-4.872 0.867,-5.622 -0.673,-5.007 -0.673,-5.007 Z"
           style="fill:#ff8a35;fill-opacity:1;fill-rule:nonzero;stroke:none"
           id="path1489" />
      </g>
      <g
         id="g1491"
         transform="translate(205.2422,345.7954)">
        <path
           d="m 0,0 c -2.357,0.801 -3.259,2.642 -3.302,2.732 -0.041,0.087 -0.005,0.191 0.083,0.233 0.086,0.042 0.191,0.006 0.233,-0.082 C -2.974,2.859 -1.792,0.466 1.332,0.047 1.433,0.036 1.495,-0.054 1.482,-0.149 1.47,-0.245 1.382,-0.312 1.286,-0.299 0.816,-0.236 0.388,-0.132 0,0"
           style="fill:#1a2e35;fill-opacity:1;fill-rule:nonzero;stroke:none"
           id="path1493" />
      </g>
      <g
         id="g1495"
         transform="translate(201.5537,358.9048)">
        <path
           d="M 0,0 C -0.059,0.02 -0.112,0.056 -0.155,0.106 -0.279,0.254 -0.261,0.475 -0.112,0.599 1.64,2.073 3.47,1.542 3.547,1.519 3.737,1.446 3.835,1.269 3.78,1.084 3.726,0.9 3.53,0.794 3.346,0.849 3.282,0.868 1.791,1.286 0.338,0.063 0.241,-0.018 0.112,-0.038 0,0"
           style="fill:#1a2e35;fill-opacity:1;fill-rule:nonzero;stroke:none"
           id="path1497" />
      </g>
      <g
         id="g1499"
         transform="translate(216.5918,356.7671)">
        <path
           d="m 0,0 c -0.055,0.019 -0.105,0.051 -0.146,0.097 -1.284,1.423 -2.855,1.194 -2.871,1.191 -0.192,-0.03 -0.37,0.101 -0.399,0.291 -0.03,0.191 0.1,0.37 0.29,0.4 0.08,0.013 1.966,0.288 3.499,-1.414 C 0.502,0.422 0.49,0.201 0.348,0.072 0.25,-0.017 0.116,-0.04 0,0"
           style="fill:#1a2e35;fill-opacity:1;fill-rule:nonzero;stroke:none"
           id="path1501" />
      </g>
      <g
         id="g1507">
        <g
           id="g1509" />
        <g
           id="g1521">
          <g
             clip-path="url(#clipPath1513)"
             opacity="0.300003"
             id="g1519">
            <g
               transform="translate(224.5029,281.3237)"
               id="g1517">
              <path
                 d="m -208.53876,78.923901 c 2.724,8.481 11.808,13.149 20.289,10.426 8.482,-2.723 13.149,-11.807 10.426,-20.288 l -6.232,-19.409 -30.714,9.863 z"
                 style="fill:#000000;fill-opacity:1;fill-rule:nonzero;stroke:none"
                 id="path1515" />
            </g>
          </g>
        </g>
      </g>
      <g
         id="g1539">
        <g
           id="g1541" />
        <g
           id="g1553">
          <g
             clip-path="url(#clipPath1545)"
             opacity="0.199997"
             id="g1551">
            <g
               transform="translate(219.7539,259.0278)"
               id="g1549">
              <path
                 d="m -208.53876,78.923901 16.1,-5.169 c 0.603,-0.194 1.25,0.138 1.443,0.741 0.193,0.603 -0.139,1.249 -0.741,1.443 l -18.285,5.871 c -0.387,-1.206 0.277,-2.498 1.483,-2.886"
                 style="fill:#000000;fill-opacity:1;fill-rule:nonzero;stroke:none"
                 id="path1547"
                 sodipodi:nodetypes="ccsccc" />
            </g>
          </g>
        </g>
      </g>
      <g
         id="g1555"
         transform="translate(178.1436,314.8979)">
        <path
           d="m 0,0 -0.558,-0.605 -0.62,-0.713 c -0.42,-0.48 -0.835,-0.978 -1.24,-1.487 -0.813,-1.014 -1.591,-2.07 -2.329,-3.152 -1.511,-2.143 -2.878,-4.395 -4.046,-6.733 -1.169,-2.339 -2.21,-4.736 -3.007,-7.211 -0.4,-1.235 -0.776,-2.481 -1.065,-3.745 -0.096,-0.371 -0.114,-0.519 -0.156,-0.696 -0.019,-0.162 -0.04,-0.315 -0.042,-0.434 -0.004,-0.245 0.018,-0.366 0.042,-0.471 0.013,-0.177 0.334,-0.605 1.156,-1.017 0.8,-0.406 1.912,-0.716 3.094,-0.942 2.391,-0.456 5.082,-0.526 7.782,-0.51 2.712,0.034 5.47,0.238 8.231,0.531 2.759,0.25 5.563,0.649 8.275,1.054 l 1.09,-4.322 c -5.599,-1.801 -11.219,-3.098 -17.153,-3.814 -2.97,-0.354 -5.998,-0.509 -9.247,-0.196 -1.631,0.176 -3.322,0.486 -5.136,1.212 -0.904,0.374 -1.845,0.866 -2.762,1.586 -0.912,0.713 -1.797,1.69 -2.404,2.864 -1.264,2.346 -1.114,5.112 -0.767,6.737 0.243,1.53 0.587,3.039 0.964,4.539 0.812,2.98 1.839,5.901 3.152,8.681 1.297,2.787 2.816,5.455 4.511,8.01 0.865,1.266 1.778,2.499 2.746,3.702 0.482,0.602 0.978,1.196 1.498,1.785 l 0.804,0.873 c 0.292,0.307 0.527,0.552 0.92,0.933 z"
           style="fill:#ffb670;fill-opacity:1;fill-rule:nonzero;stroke:none"
           id="path1557" />
      </g>
      <g
         id="g1559"
         transform="translate(191.4756,287.8691)">
        <path
           d="m 0,0 7.01,3.713 0.313,-7.526 c 0,0 -4.95,-2.064 -7.856,0.214 z"
           style="fill:#ffb670;fill-opacity:1;fill-rule:nonzero;stroke:none"
           id="path1561" />
      </g>
      <g
         id="g1563"
         transform="translate(204.25,292.1538)">
        <path
           d="m 0,0 -1.053,-6.932 -4.398,-1.166 -0.314,7.527 z"
           style="fill:#ffb670;fill-opacity:1;fill-rule:nonzero;stroke:none"
           id="path1565" />
      </g>
      <g
         id="g1567"
         transform="translate(173.9092,329.0181)">
        <path
           d="M 0,0 C -4.406,-0.779 -10.581,-13.418 -10.581,-13.418 L 0.526,-23.464 c 0,0 8.835,9.636 8.364,15.378 C 8.489,-3.212 5.612,0.992 0,0"
           style="fill:#007cff;fill-opacity:1;fill-rule:nonzero;stroke:none"
           id="path1569" />
      </g>
      <g
         id="g1571">
        <g
           id="g1573" />
        <g
           id="g1585">
          <g
             clip-path="url(#clipPath1577)"
             opacity="0.699997"
             id="g1583">
            <g
               transform="translate(173.9092,329.0181)"
               id="g1581">
              <path
                 d="M 0,0 C -4.406,-0.779 -10.581,-13.418 -10.581,-13.418 L 0.526,-23.464 c 0,0 8.835,9.636 8.364,15.378 C 8.489,-3.212 5.612,0.992 0,0"
                 style="fill:#ffffff;fill-opacity:1;fill-rule:nonzero;stroke:none"
                 id="path1579" />
            </g>
          </g>
        </g>
      </g>
      <g
         id="g1587"
         transform="translate(141.4189,106.4844)">
        <path
           d="m 0,0 c 0.889,-1.372 1.773,-2.199 2.404,-2.233 0.274,-0.014 0.505,0.112 0.715,0.386 0.121,0.158 0.099,0.272 0.071,0.345 C 2.954,-0.859 1.078,-0.269 0,0 m 2.731,-2.546 c -0.11,-0.031 -0.225,-0.042 -0.345,-0.037 -1.111,0.061 -2.299,1.755 -2.909,2.759 -0.037,0.06 -0.034,0.136 0.006,0.193 0.041,0.056 0.112,0.084 0.18,0.069 C 0.018,0.362 3.134,-0.334 3.52,-1.38 3.578,-1.541 3.604,-1.788 3.396,-2.06 3.202,-2.314 2.979,-2.477 2.731,-2.546"
           style="fill:#007cff;fill-opacity:1;fill-rule:nonzero;stroke:none"
           id="path1589" />
      </g>
      <g
         id="g1591"
         transform="translate(141.416,106.8555)">
        <path
           d="M 0,0 C 1.028,-0.136 2.877,0.118 3.262,0.683 3.326,0.777 3.376,0.916 3.196,1.148 3.06,1.326 2.881,1.42 2.65,1.436 1.784,1.498 0.527,0.47 0,0 m 2.418,-0.156 c -0.963,-0.268 -2.23,-0.289 -2.837,-0.116 -0.06,0.017 -0.105,0.064 -0.121,0.125 -0.016,0.06 0.003,0.124 0.047,0.168 0.076,0.075 1.897,1.854 3.167,1.764 C 3.006,1.762 3.274,1.62 3.474,1.361 3.784,0.959 3.655,0.641 3.552,0.487 3.355,0.197 2.93,-0.014 2.418,-0.156"
           style="fill:#007cff;fill-opacity:1;fill-rule:nonzero;stroke:none"
           id="path1593" />
      </g>
      <g
         id="g1595"
         transform="translate(187.0273,92.21)">
        <path
           d="M 0,0 C 1.135,-0.212 3.234,-0.488 4.099,0.165 4.339,0.347 4.463,0.584 4.481,0.893 4.489,1.035 4.434,1.091 4.386,1.124 3.848,1.49 1.587,0.699 0,0 m 2.275,-0.599 c -1.012,0 -2.113,0.195 -2.877,0.365 -0.073,0.016 -0.127,0.077 -0.135,0.151 -0.009,0.075 0.031,0.146 0.099,0.178 0.433,0.203 4.256,1.97 5.219,1.319 C 4.704,1.331 4.848,1.169 4.83,0.873 4.807,0.461 4.632,0.13 4.31,-0.114 3.832,-0.475 3.082,-0.599 2.275,-0.599"
           style="fill:#007cff;fill-opacity:1;fill-rule:nonzero;stroke:none"
           id="path1597" />
      </g>
      <g
         id="g1599"
         transform="translate(189.085,95.5376)">
        <path
           d="M 0,0 C -1.326,0 -2.099,-2.194 -2.354,-3.073 -1.109,-2.42 0.613,-0.848 0.53,-0.234 0.524,-0.188 0.506,-0.052 0.146,-0.008 0.096,-0.003 0.047,0 0,0 m -2.621,-3.566 c -0.041,0 -0.081,0.014 -0.113,0.042 -0.05,0.042 -0.072,0.108 -0.058,0.172 0.037,0.161 0.904,3.931 2.979,3.69 0.52,-0.062 0.663,-0.319 0.69,-0.525 0.13,-0.959 -2.281,-2.895 -3.432,-3.366 -0.021,-0.009 -0.044,-0.013 -0.066,-0.013"
           style="fill:#007cff;fill-opacity:1;fill-rule:nonzero;stroke:none"
           id="path1601" />
      </g>
      <g
         id="g1603"
         transform="translate(205.998,355.9487)">
        <path
           d="M 0,0 1.771,0.263 C 1.771,0.263 0.718,-0.952 0,0"
           style="fill:#1a2e35;fill-opacity:1;fill-rule:nonzero;stroke:none"
           id="path1605" />
      </g>
    </g>
    <g
       id="g3319"
       transform="translate(357.21307,249.16813)">
      <path
         d="m 0,0 c -0.006,0.009 0.026,0.168 0.092,0.467 0.075,0.326 0.173,0.759 0.298,1.305 0.275,1.166 0.665,2.816 1.156,4.9 1.017,4.216 2.455,10.183 4.18,17.338 l 0.149,-0.248 c -7.225,1.777 -15.777,3.879 -24.914,6.126 -0.065,-0.036 0.545,0.328 0.286,0.171 l -0.001,-0.007 -0.003,-0.012 -0.007,-0.026 -0.013,-0.052 -0.025,-0.102 -0.051,-0.205 -0.101,-0.409 -0.202,-0.816 c -0.134,-0.543 -0.268,-1.084 -0.401,-1.622 -0.267,-1.076 -0.531,-2.142 -0.793,-3.198 -0.524,-2.11 -1.036,-4.176 -1.536,-6.187 -1.002,-4.02 -1.949,-7.819 -2.821,-11.314 l -0.151,0.251 c 7.4,-1.874 13.586,-3.441 17.96,-4.549 C -4.74,1.253 -3.031,0.812 -1.824,0.5 -1.258,0.35 -0.811,0.23 -0.475,0.142 -0.167,0.058 -0.006,0.01 0,0 0.006,-0.01 -0.145,0.02 -0.441,0.085 -0.771,0.16 -1.209,0.26 -1.763,0.387 -2.965,0.671 -4.668,1.073 -6.818,1.58 c -4.418,1.066 -10.666,2.573 -18.14,4.377 l -0.202,0.049 0.05,0.203 c 0.858,3.499 1.791,7.302 2.777,11.324 0.495,2.012 1.004,4.079 1.524,6.191 0.261,1.055 0.524,2.122 0.789,3.198 0.133,0.538 0.267,1.079 0.401,1.622 l 0.202,0.816 0.101,0.41 0.05,0.205 0.026,0.102 0.012,0.051 0.007,0.026 0.003,0.013 0.002,0.006 c -0.258,-0.153 0.352,0.218 0.292,0.178 9.131,-2.27 17.677,-4.395 24.898,-6.191 l 0.2,-0.05 -0.05,-0.198 C 4.302,16.725 2.783,10.731 1.709,6.497 1.178,4.442 0.758,2.816 0.461,1.668 0.32,1.142 0.209,0.726 0.125,0.412 0.048,0.131 0.006,-0.01 0,0"
         style="fill:#ffffff;fill-opacity:1;fill-rule:nonzero;stroke:none"
         id="path3321" />
    </g>
    <g
       id="g4583"
       clip-path="url(#clipPath4585)"
       transform="matrix(1.1658755,-0.36607601,0.36102185,1.1658118,-282.90637,103.45981)">
      <g
         inkscape:label="Clip"
         id="g4581">
        <g
           id="g3311"
           transform="matrix(0.63753228,0,0,0.67112367,355.67135,248.72436)"
           style="fill:#007cff;fill-opacity:1">
          <path
             d="m 0,0 -36.511,9.028 c -1.774,0.439 -2.856,2.232 -2.417,4.005 l 12.164,49.197 c 0.438,1.773 2.232,2.855 4.006,2.417 L 2.772,58.334 13.548,41.011 4.006,2.418 C 3.567,0.644 1.774,-0.438 0,0"
             style="fill:#007cff;fill-opacity:1;fill-rule:nonzero;stroke:none"
             id="path3313" />
        </g>
        <g
           id="g3327"
           transform="matrix(0.63753228,0,0,0.67112367,354.57588,260.1138)">
          <path
             d="m 0,0 c -0.032,-0.128 -5.655,1.152 -12.558,2.859 -6.906,1.707 -12.477,3.195 -12.445,3.324 0.032,0.128 5.654,-1.153 12.56,-2.861 C -5.54,1.615 0.032,0.128 0,0"
             style="fill:#ffffff;fill-opacity:1;fill-rule:nonzero;stroke:none"
             id="path3329" />
        </g>
        <g
           id="g3331"
           transform="matrix(0.63753228,0,0,0.67112367,355.71993,264.16611)">
          <path
             d="m 0,0 c -0.031,-0.128 -5.655,1.152 -12.558,2.859 -6.906,1.708 -12.476,3.196 -12.445,3.324 0.032,0.128 5.654,-1.153 12.56,-2.86 C -5.54,1.616 0.032,0.128 0,0"
             style="fill:#ffffff;fill-opacity:1;fill-rule:nonzero;stroke:none"
             id="path3333" />
        </g>
        <g
           id="g3335"
           transform="matrix(0.63753228,0,0,0.67112367,356.5623,268.29742)">
          <path
             d="m 0,0 c -0.032,-0.128 -5.612,1.142 -12.463,2.836 -6.854,1.694 -12.382,3.171 -12.35,3.299 0.031,0.128 5.611,-1.141 12.464,-2.836 C -5.498,1.605 0.032,0.128 0,0"
             style="fill:#ffffff;fill-opacity:1;fill-rule:nonzero;stroke:none"
             id="path3337" />
        </g>
        <g
           id="g3339"
           transform="matrix(0.63753228,0,0,0.67112367,221.95074,100.98038)">
          <g
             id="g3341" />
          <g
             id="g3353">
            <g
               clip-path="url(#clipPath3345)"
               opacity="0.399994"
               id="g3351">
              <g
                 transform="translate(212.549,278.5969)"
                 id="g3349">
                <path
                   d="m 0,0 -2.417,-9.777 c -0.598,-2.416 0.876,-4.86 3.293,-5.457 l 9.871,-2.208 z"
                   style="fill:#ffffff;fill-opacity:1;fill-rule:nonzero;stroke:none"
                   id="path3347" />
              </g>
            </g>
          </g>
        </g>
      </g>
    </g>
    <g
       id="g4780"
       clip-path="url(#clipPath4585)"
       transform="matrix(1.1658755,-0.36607601,0.36102185,1.1658118,-272.31902,104.74313)">
      <g
         inkscape:label="Clip"
         id="g4778">
        <g
           id="g4752"
           transform="matrix(0.63753228,0,0,0.67112367,355.67135,248.72436)"
           style="fill:#007cff;fill-opacity:1">
          <path
             d="m 0,0 -36.511,9.028 c -1.774,0.439 -2.856,2.232 -2.417,4.005 l 12.164,49.197 c 0.438,1.773 2.232,2.855 4.006,2.417 L 2.772,58.334 13.548,41.011 4.006,2.418 C 3.567,0.644 1.774,-0.438 0,0"
             style="fill:#007cff;fill-opacity:1;fill-rule:nonzero;stroke:none"
             id="path4750" />
        </g>
        <g
           id="g4756"
           transform="matrix(0.63753228,0,0,0.67112367,354.57588,260.1138)">
          <path
             d="m 0,0 c -0.032,-0.128 -5.655,1.152 -12.558,2.859 -6.906,1.707 -12.477,3.195 -12.445,3.324 0.032,0.128 5.654,-1.153 12.56,-2.861 C -5.54,1.615 0.032,0.128 0,0"
             style="fill:#ffffff;fill-opacity:1;fill-rule:nonzero;stroke:none"
             id="path4754" />
        </g>
        <g
           id="g4760"
           transform="matrix(0.63753228,0,0,0.67112367,355.71993,264.16611)">
          <path
             d="m 0,0 c -0.031,-0.128 -5.655,1.152 -12.558,2.859 -6.906,1.708 -12.476,3.196 -12.445,3.324 0.032,0.128 5.654,-1.153 12.56,-2.86 C -5.54,1.616 0.032,0.128 0,0"
             style="fill:#ffffff;fill-opacity:1;fill-rule:nonzero;stroke:none"
             id="path4758" />
        </g>
        <g
           id="g4764"
           transform="matrix(0.63753228,0,0,0.67112367,356.5623,268.29742)">
          <path
             d="m 0,0 c -0.032,-0.128 -5.612,1.142 -12.463,2.836 -6.854,1.694 -12.382,3.171 -12.35,3.299 0.031,0.128 5.611,-1.141 12.464,-2.836 C -5.498,1.605 0.032,0.128 0,0"
             style="fill:#ffffff;fill-opacity:1;fill-rule:nonzero;stroke:none"
             id="path4762" />
        </g>
        <g
           id="g4776"
           transform="matrix(0.63753228,0,0,0.67112367,221.95074,100.98038)">
          <g
             id="g4766" />
          <g
             id="g4774">
            <g
               clip-path="url(#clipPath3345)"
               opacity="0.399994"
               id="g4772">
              <g
                 transform="translate(212.549,278.5969)"
                 id="g4770">
                <path
                   d="m 0,0 -2.417,-9.777 c -0.598,-2.416 0.876,-4.86 3.293,-5.457 l 9.871,-2.208 z"
                   style="fill:#ffffff;fill-opacity:1;fill-rule:nonzero;stroke:none"
                   id="path4768" />
              </g>
            </g>
          </g>
        </g>
      </g>
    </g>
    <g
       id="g4812"
       clip-path="url(#clipPath4585)"
       transform="matrix(1.1658755,-0.36607601,0.36102185,1.1658118,-238.7437,60.278518)">
      <g
         inkscape:label="Clip"
         id="g4810" />
    </g>
    <g
       id="g4896"
       clip-path="url(#clipPath4585)"
       transform="matrix(0.50375391,-0.79945871,0.73598971,0.54746413,-114.46638,385.58822)">
      <g
         inkscape:label="Clip"
         id="g4894">
        <g
           id="g4868"
           transform="matrix(0.63753228,0,0,0.67112367,355.67135,248.72436)"
           style="fill:#007cff;fill-opacity:1">
          <path
             d="m 0,0 -36.511,9.028 c -1.774,0.439 -2.856,2.232 -2.417,4.005 l 12.164,49.197 c 0.438,1.773 2.232,2.855 4.006,2.417 L 2.772,58.334 13.548,41.011 4.006,2.418 C 3.567,0.644 1.774,-0.438 0,0"
             style="fill:#007cff;fill-opacity:1;fill-rule:nonzero;stroke:none"
             id="path4866" />
        </g>
        <g
           id="g4872"
           transform="matrix(0.63753228,0,0,0.67112367,354.57588,260.1138)">
          <path
             d="m 0,0 c -0.032,-0.128 -5.655,1.152 -12.558,2.859 -6.906,1.707 -12.477,3.195 -12.445,3.324 0.032,0.128 5.654,-1.153 12.56,-2.861 C -5.54,1.615 0.032,0.128 0,0"
             style="fill:#ffffff;fill-opacity:1;fill-rule:nonzero;stroke:none"
             id="path4870" />
        </g>
        <g
           id="g4876"
           transform="matrix(0.63753228,0,0,0.67112367,355.71993,264.16611)">
          <path
             d="m 0,0 c -0.031,-0.128 -5.655,1.152 -12.558,2.859 -6.906,1.708 -12.476,3.196 -12.445,3.324 0.032,0.128 5.654,-1.153 12.56,-2.86 C -5.54,1.616 0.032,0.128 0,0"
             style="fill:#ffffff;fill-opacity:1;fill-rule:nonzero;stroke:none"
             id="path4874" />
        </g>
        <g
           id="g4880"
           transform="matrix(0.63753228,0,0,0.67112367,356.5623,268.29742)">
          <path
             d="m 0,0 c -0.032,-0.128 -5.612,1.142 -12.463,2.836 -6.854,1.694 -12.382,3.171 -12.35,3.299 0.031,0.128 5.611,-1.141 12.464,-2.836 C -5.498,1.605 0.032,0.128 0,0"
             style="fill:#ffffff;fill-opacity:1;fill-rule:nonzero;stroke:none"
             id="path4878" />
        </g>
        <g
           id="g4892"
           transform="matrix(0.63753228,0,0,0.67112367,221.95074,100.98038)">
          <g
             id="g4882" />
          <g
             id="g4890">
            <g
               clip-path="url(#clipPath3345)"
               opacity="0.399994"
               id="g4888">
              <g
                 transform="translate(212.549,278.5969)"
                 id="g4886">
                <path
                   d="m 0,0 -2.417,-9.777 c -0.598,-2.416 0.876,-4.86 3.293,-5.457 l 9.871,-2.208 z"
                   style="fill:#ffffff;fill-opacity:1;fill-rule:nonzero;stroke:none"
                   id="path4884" />
              </g>
            </g>
          </g>
        </g>
      </g>
    </g>
    <g
       id="g4928"
       clip-path="url(#clipPath4585)"
       transform="matrix(0.50375391,-0.79945871,0.73598971,0.54746413,-103.57709,335.22523)">
      <g
         inkscape:label="Clip"
         id="g4926">
        <g
           id="g4900"
           transform="matrix(0.63753228,0,0,0.67112367,355.67135,248.72436)"
           style="fill:#007cff;fill-opacity:1">
          <path
             d="m 0,0 -36.511,9.028 c -1.774,0.439 -2.856,2.232 -2.417,4.005 l 12.164,49.197 c 0.438,1.773 2.232,2.855 4.006,2.417 L 2.772,58.334 13.548,41.011 4.006,2.418 C 3.567,0.644 1.774,-0.438 0,0"
             style="fill:#007cff;fill-opacity:1;fill-rule:nonzero;stroke:none"
             id="path4898" />
        </g>
        <g
           id="g4904"
           transform="matrix(0.63753228,0,0,0.67112367,354.57588,260.1138)">
          <path
             d="m 0,0 c -0.032,-0.128 -5.655,1.152 -12.558,2.859 -6.906,1.707 -12.477,3.195 -12.445,3.324 0.032,0.128 5.654,-1.153 12.56,-2.861 C -5.54,1.615 0.032,0.128 0,0"
             style="fill:#ffffff;fill-opacity:1;fill-rule:nonzero;stroke:none"
             id="path4902" />
        </g>
        <g
           id="g4908"
           transform="matrix(0.63753228,0,0,0.67112367,355.71993,264.16611)">
          <path
             d="m 0,0 c -0.031,-0.128 -5.655,1.152 -12.558,2.859 -6.906,1.708 -12.476,3.196 -12.445,3.324 0.032,0.128 5.654,-1.153 12.56,-2.86 C -5.54,1.616 0.032,0.128 0,0"
             style="fill:#ffffff;fill-opacity:1;fill-rule:nonzero;stroke:none"
             id="path4906" />
        </g>
        <g
           id="g4912"
           transform="matrix(0.63753228,0,0,0.67112367,356.5623,268.29742)">
          <path
             d="m 0,0 c -0.032,-0.128 -5.612,1.142 -12.463,2.836 -6.854,1.694 -12.382,3.171 -12.35,3.299 0.031,0.128 5.611,-1.141 12.464,-2.836 C -5.498,1.605 0.032,0.128 0,0"
             style="fill:#ffffff;fill-opacity:1;fill-rule:nonzero;stroke:none"
             id="path4910" />
        </g>
        <g
           id="g4924"
           transform="matrix(0.63753228,0,0,0.67112367,221.95074,100.98038)">
          <g
             id="g4914" />
          <g
             id="g4922">
            <g
               clip-path="url(#clipPath3345)"
               opacity="0.399994"
               id="g4920">
              <g
                 transform="translate(212.549,278.5969)"
                 id="g4918">
                <path
                   d="m 0,0 -2.417,-9.777 c -0.598,-2.416 0.876,-4.86 3.293,-5.457 l 9.871,-2.208 z"
                   style="fill:#ffffff;fill-opacity:1;fill-rule:nonzero;stroke:none"
                   id="path4916" />
              </g>
            </g>
          </g>
        </g>
      </g>
    </g>
    <g
       id="g4960"
       clip-path="url(#clipPath4585)"
       transform="matrix(0.50375391,-0.79945871,0.73598971,0.54746413,-91.326637,361.54102)">
      <g
         inkscape:label="Clip"
         id="g4958">
        <g
           id="g4932"
           transform="matrix(0.63753228,0,0,0.67112367,355.67135,248.72436)"
           style="fill:#007cff;fill-opacity:1">
          <path
             d="m 0,0 -36.511,9.028 c -1.774,0.439 -2.856,2.232 -2.417,4.005 l 12.164,49.197 c 0.438,1.773 2.232,2.855 4.006,2.417 L 2.772,58.334 13.548,41.011 4.006,2.418 C 3.567,0.644 1.774,-0.438 0,0"
             style="fill:#007cff;fill-opacity:1;fill-rule:nonzero;stroke:none"
             id="path4930" />
        </g>
        <g
           id="g4936"
           transform="matrix(0.63753228,0,0,0.67112367,354.57588,260.1138)">
          <path
             d="m 0,0 c -0.032,-0.128 -5.655,1.152 -12.558,2.859 -6.906,1.707 -12.477,3.195 -12.445,3.324 0.032,0.128 5.654,-1.153 12.56,-2.861 C -5.54,1.615 0.032,0.128 0,0"
             style="fill:#ffffff;fill-opacity:1;fill-rule:nonzero;stroke:none"
             id="path4934" />
        </g>
        <g
           id="g4940"
           transform="matrix(0.63753228,0,0,0.67112367,355.71993,264.16611)">
          <path
             d="m 0,0 c -0.031,-0.128 -5.655,1.152 -12.558,2.859 -6.906,1.708 -12.476,3.196 -12.445,3.324 0.032,0.128 5.654,-1.153 12.56,-2.86 C -5.54,1.616 0.032,0.128 0,0"
             style="fill:#ffffff;fill-opacity:1;fill-rule:nonzero;stroke:none"
             id="path4938" />
        </g>
        <g
           id="g4944"
           transform="matrix(0.63753228,0,0,0.67112367,356.5623,268.29742)">
          <path
             d="m 0,0 c -0.032,-0.128 -5.612,1.142 -12.463,2.836 -6.854,1.694 -12.382,3.171 -12.35,3.299 0.031,0.128 5.611,-1.141 12.464,-2.836 C -5.498,1.605 0.032,0.128 0,0"
             style="fill:#ffffff;fill-opacity:1;fill-rule:nonzero;stroke:none"
             id="path4942" />
        </g>
        <g
           id="g4956"
           transform="matrix(0.63753228,0,0,0.67112367,221.95074,100.98038)">
          <g
             id="g4946" />
          <g
             id="g4954">
            <g
               clip-path="url(#clipPath3345)"
               opacity="0.399994"
               id="g4952">
              <g
                 transform="translate(212.549,278.5969)"
                 id="g4950">
                <path
                   d="m 0,0 -2.417,-9.777 c -0.598,-2.416 0.876,-4.86 3.293,-5.457 l 9.871,-2.208 z"
                   style="fill:#ffffff;fill-opacity:1;fill-rule:nonzero;stroke:none"
                   id="path4948" />
              </g>
            </g>
          </g>
        </g>
      </g>
    </g>
    <g
       id="g4992"
       clip-path="url(#clipPath4585)"
       transform="matrix(0.50375391,-0.79945871,0.73598971,0.54746413,-69.548051,317.07641)">
      <g
         inkscape:label="Clip"
         id="g4990">
        <g
           id="g4964"
           transform="matrix(0.63753228,0,0,0.67112367,355.67135,248.72436)"
           style="fill:#007cff;fill-opacity:1">
          <path
             d="m 0,0 -36.511,9.028 c -1.774,0.439 -2.856,2.232 -2.417,4.005 l 12.164,49.197 c 0.438,1.773 2.232,2.855 4.006,2.417 L 2.772,58.334 13.548,41.011 4.006,2.418 C 3.567,0.644 1.774,-0.438 0,0"
             style="fill:#007cff;fill-opacity:1;fill-rule:nonzero;stroke:none"
             id="path4962" />
        </g>
        <g
           id="g4968"
           transform="matrix(0.63753228,0,0,0.67112367,354.57588,260.1138)">
          <path
             d="m 0,0 c -0.032,-0.128 -5.655,1.152 -12.558,2.859 -6.906,1.707 -12.477,3.195 -12.445,3.324 0.032,0.128 5.654,-1.153 12.56,-2.861 C -5.54,1.615 0.032,0.128 0,0"
             style="fill:#ffffff;fill-opacity:1;fill-rule:nonzero;stroke:none"
             id="path4966" />
        </g>
        <g
           id="g4972"
           transform="matrix(0.63753228,0,0,0.67112367,355.71993,264.16611)">
          <path
             d="m 0,0 c -0.031,-0.128 -5.655,1.152 -12.558,2.859 -6.906,1.708 -12.476,3.196 -12.445,3.324 0.032,0.128 5.654,-1.153 12.56,-2.86 C -5.54,1.616 0.032,0.128 0,0"
             style="fill:#ffffff;fill-opacity:1;fill-rule:nonzero;stroke:none"
             id="path4970" />
        </g>
        <g
           id="g4976"
           transform="matrix(0.63753228,0,0,0.67112367,356.5623,268.29742)">
          <path
             d="m 0,0 c -0.032,-0.128 -5.612,1.142 -12.463,2.836 -6.854,1.694 -12.382,3.171 -12.35,3.299 0.031,0.128 5.611,-1.141 12.464,-2.836 C -5.498,1.605 0.032,0.128 0,0"
             style="fill:#ffffff;fill-opacity:1;fill-rule:nonzero;stroke:none"
             id="path4974" />
        </g>
        <g
           id="g4988"
           transform="matrix(0.63753228,0,0,0.67112367,221.95074,100.98038)">
          <g
             id="g4978" />
          <g
             id="g4986">
            <g
               clip-path="url(#clipPath3345)"
               opacity="0.399994"
               id="g4984">
              <g
                 transform="translate(212.549,278.5969)"
                 id="g4982">
                <path
                   d="m 0,0 -2.417,-9.777 c -0.598,-2.416 0.876,-4.86 3.293,-5.457 l 9.871,-2.208 z"
                   style="fill:#ffffff;fill-opacity:1;fill-rule:nonzero;stroke:none"
                   id="path4980" />
              </g>
            </g>
          </g>
        </g>
      </g>
    </g>
  </g>
</svg>
